G04 #@! TF.FileFunction,Soldermask,Bot*
%FSLAX46Y46*%
G04 Gerber Fmt 4.6, Leading zero omitted, Abs format (unit mm)*
G04 Created by KiCad (PCBNEW 4.0.1-stable) date 2/7/2016 5:33:15 PM*
%MOMM*%
G01*
G04 APERTURE LIST*
%ADD10C,0.100000*%
%ADD11C,1.016000*%
%ADD12C,2.279600*%
%ADD13R,2.127200X2.432000*%
%ADD14O,2.127200X2.432000*%
%ADD15R,2.432000X2.432000*%
%ADD16O,2.432000X2.432000*%
%ADD17C,2.686000*%
%ADD18C,3.400000*%
%ADD19C,2.900000*%
%ADD20C,2.400000*%
%ADD21R,2.635200X2.635200*%
%ADD22C,1.924000*%
%ADD23C,2.305000*%
%ADD24R,2.432000X2.127200*%
%ADD25O,2.432000X2.127200*%
G04 APERTURE END LIST*
D10*
D11*
X34036000Y-31750000D02*
G75*
G03X34036000Y-31750000I-2286000J0D01*
G01*
X214376000Y-49530000D02*
G75*
G03X214376000Y-49530000I-2286000J0D01*
G01*
X153416000Y-49530000D02*
G75*
G03X153416000Y-49530000I-2286000J0D01*
G01*
X276606000Y-31750000D02*
G75*
G03X276606000Y-31750000I-2286000J0D01*
G01*
D12*
X104140000Y-132080000D03*
X106680000Y-132080000D03*
X101600000Y-132080000D03*
X96520000Y-132080000D03*
X99060000Y-132080000D03*
D13*
X58420000Y-121920000D03*
D14*
X60960000Y-121920000D03*
X63500000Y-121920000D03*
X66040000Y-121920000D03*
D12*
X40640000Y-124460000D03*
X43180000Y-124460000D03*
X48260000Y-124460000D03*
X45720000Y-124460000D03*
X38100000Y-124460000D03*
X50800000Y-124460000D03*
X38100000Y-129540000D03*
X38100000Y-127000000D03*
X40640000Y-127000000D03*
X40640000Y-129540000D03*
X40640000Y-132080000D03*
X38100000Y-132080000D03*
X109220000Y-134620000D03*
X109220000Y-137160000D03*
X109220000Y-132080000D03*
X114300000Y-137160000D03*
X111760000Y-134620000D03*
X114300000Y-134620000D03*
X114300000Y-132080000D03*
X111760000Y-137160000D03*
X111760000Y-132080000D03*
X106680000Y-129540000D03*
X104140000Y-129540000D03*
X101600000Y-129540000D03*
X96520000Y-129540000D03*
X99060000Y-129540000D03*
X109220000Y-129540000D03*
X111760000Y-129540000D03*
X114300000Y-129540000D03*
X109220000Y-127000000D03*
X111760000Y-127000000D03*
X106680000Y-127000000D03*
X106680000Y-121920000D03*
X111760000Y-121920000D03*
X106680000Y-124460000D03*
X109220000Y-124460000D03*
X111760000Y-124460000D03*
X109220000Y-121920000D03*
X114300000Y-121920000D03*
X114300000Y-127000000D03*
X114300000Y-124460000D03*
X101600000Y-124460000D03*
X104140000Y-127000000D03*
X99060000Y-124460000D03*
X96520000Y-127000000D03*
X104140000Y-124460000D03*
X99060000Y-127000000D03*
X101600000Y-127000000D03*
X96520000Y-124460000D03*
X101600000Y-121920000D03*
X104140000Y-121920000D03*
X99060000Y-121920000D03*
X96520000Y-121920000D03*
X48260000Y-127000000D03*
X48260000Y-129540000D03*
X48260000Y-132080000D03*
X45720000Y-132080000D03*
X50800000Y-127000000D03*
X50800000Y-129540000D03*
X50800000Y-132080000D03*
X43180000Y-127000000D03*
X45720000Y-129540000D03*
X45720000Y-127000000D03*
X43180000Y-132080000D03*
X43180000Y-129540000D03*
X73660000Y-66040000D03*
X83820000Y-66040000D03*
X81280000Y-66040000D03*
X88900000Y-66040000D03*
X86360000Y-66040000D03*
X88900000Y-63500000D03*
X78740000Y-66040000D03*
X93980000Y-63500000D03*
X91440000Y-66040000D03*
X91440000Y-63500000D03*
X93980000Y-66040000D03*
X96520000Y-66040000D03*
X96520000Y-63500000D03*
X101600000Y-66040000D03*
X99060000Y-66040000D03*
X101600000Y-63500000D03*
X99060000Y-63500000D03*
X106680000Y-63500000D03*
X104140000Y-66040000D03*
X104140000Y-63500000D03*
X106680000Y-66040000D03*
X119380000Y-63500000D03*
X119380000Y-66040000D03*
X121920000Y-63500000D03*
X121920000Y-66040000D03*
X124460000Y-63500000D03*
X124460000Y-66040000D03*
X124460000Y-58420000D03*
X124460000Y-60960000D03*
X121920000Y-60960000D03*
X121920000Y-58420000D03*
X116840000Y-60960000D03*
X116840000Y-58420000D03*
X119380000Y-58420000D03*
X116840000Y-63500000D03*
X116840000Y-66040000D03*
X119380000Y-60960000D03*
X109220000Y-66040000D03*
X109220000Y-63500000D03*
X114300000Y-66040000D03*
X114300000Y-63500000D03*
X111760000Y-66040000D03*
X111760000Y-63500000D03*
X111760000Y-58420000D03*
X111760000Y-60960000D03*
X114300000Y-60960000D03*
X114300000Y-58420000D03*
X109220000Y-60960000D03*
X76200000Y-66040000D03*
X261620000Y-78740000D03*
X261620000Y-81280000D03*
X266700000Y-78740000D03*
X264160000Y-81280000D03*
X266700000Y-81280000D03*
X264160000Y-78740000D03*
X259080000Y-78740000D03*
X259080000Y-81280000D03*
X254000000Y-81280000D03*
X256540000Y-81280000D03*
X254000000Y-78740000D03*
X269240000Y-81280000D03*
X271780000Y-78740000D03*
X271780000Y-81280000D03*
X269240000Y-78740000D03*
X256540000Y-78740000D03*
X276860000Y-81280000D03*
X274320000Y-81280000D03*
X274320000Y-78740000D03*
X276860000Y-78740000D03*
X228600000Y-81280000D03*
X228600000Y-78740000D03*
X231140000Y-81280000D03*
X231140000Y-78740000D03*
X226060000Y-78740000D03*
X220980000Y-78740000D03*
X226060000Y-81280000D03*
X220980000Y-81280000D03*
X223520000Y-78740000D03*
X223520000Y-81280000D03*
X200660000Y-78740000D03*
X200660000Y-81280000D03*
X198120000Y-81280000D03*
X198120000Y-78740000D03*
X193040000Y-81280000D03*
X195580000Y-78740000D03*
X193040000Y-78740000D03*
X195580000Y-81280000D03*
X203200000Y-81280000D03*
X205740000Y-78740000D03*
X203200000Y-78740000D03*
X205740000Y-81280000D03*
X180340000Y-78740000D03*
X177800000Y-81280000D03*
X180340000Y-81280000D03*
X175260000Y-81280000D03*
X175260000Y-78740000D03*
X177800000Y-78740000D03*
X190500000Y-78740000D03*
X187960000Y-78740000D03*
X187960000Y-81280000D03*
X190500000Y-81280000D03*
X182880000Y-78740000D03*
X182880000Y-81280000D03*
X185420000Y-81280000D03*
X185420000Y-78740000D03*
X208280000Y-81280000D03*
X210820000Y-81280000D03*
X213360000Y-81280000D03*
X213360000Y-78740000D03*
X210820000Y-78740000D03*
X208280000Y-78740000D03*
X218440000Y-81280000D03*
X215900000Y-78740000D03*
X215900000Y-81280000D03*
X218440000Y-78740000D03*
X243840000Y-81280000D03*
X246380000Y-81280000D03*
X246380000Y-78740000D03*
X243840000Y-78740000D03*
X251460000Y-78740000D03*
X248920000Y-81280000D03*
X251460000Y-81280000D03*
X248920000Y-78740000D03*
X233680000Y-78740000D03*
X236220000Y-81280000D03*
X233680000Y-81280000D03*
X236220000Y-78740000D03*
X238760000Y-81280000D03*
X241300000Y-81280000D03*
X238760000Y-78740000D03*
X241300000Y-78740000D03*
X261620000Y-73660000D03*
X261620000Y-76200000D03*
X266700000Y-73660000D03*
X264160000Y-76200000D03*
X266700000Y-76200000D03*
X264160000Y-73660000D03*
X259080000Y-73660000D03*
X259080000Y-76200000D03*
X254000000Y-76200000D03*
X256540000Y-76200000D03*
X254000000Y-73660000D03*
X269240000Y-76200000D03*
X271780000Y-73660000D03*
X271780000Y-76200000D03*
X269240000Y-73660000D03*
X256540000Y-73660000D03*
X276860000Y-76200000D03*
X274320000Y-76200000D03*
X274320000Y-73660000D03*
X276860000Y-73660000D03*
X228600000Y-76200000D03*
X228600000Y-73660000D03*
X231140000Y-76200000D03*
X231140000Y-73660000D03*
X226060000Y-73660000D03*
X220980000Y-73660000D03*
X226060000Y-76200000D03*
X220980000Y-76200000D03*
X223520000Y-73660000D03*
X223520000Y-76200000D03*
X200660000Y-73660000D03*
X200660000Y-76200000D03*
X198120000Y-76200000D03*
X198120000Y-73660000D03*
X193040000Y-76200000D03*
X195580000Y-73660000D03*
X193040000Y-73660000D03*
X195580000Y-76200000D03*
X203200000Y-76200000D03*
X205740000Y-73660000D03*
X203200000Y-73660000D03*
X205740000Y-76200000D03*
X180340000Y-73660000D03*
X177800000Y-76200000D03*
X180340000Y-76200000D03*
X175260000Y-76200000D03*
X175260000Y-73660000D03*
X177800000Y-73660000D03*
X190500000Y-73660000D03*
X187960000Y-73660000D03*
X187960000Y-76200000D03*
X190500000Y-76200000D03*
X182880000Y-73660000D03*
X182880000Y-76200000D03*
X185420000Y-76200000D03*
X185420000Y-73660000D03*
X208280000Y-76200000D03*
X210820000Y-76200000D03*
X213360000Y-76200000D03*
X213360000Y-73660000D03*
X210820000Y-73660000D03*
X208280000Y-73660000D03*
X218440000Y-76200000D03*
X215900000Y-73660000D03*
X215900000Y-76200000D03*
X218440000Y-73660000D03*
X243840000Y-76200000D03*
X246380000Y-76200000D03*
X246380000Y-73660000D03*
X243840000Y-73660000D03*
X251460000Y-73660000D03*
X248920000Y-76200000D03*
X251460000Y-76200000D03*
X248920000Y-73660000D03*
X233680000Y-73660000D03*
X236220000Y-76200000D03*
X233680000Y-76200000D03*
X236220000Y-73660000D03*
X238760000Y-76200000D03*
X241300000Y-76200000D03*
X238760000Y-73660000D03*
X241300000Y-73660000D03*
X231140000Y-58420000D03*
X228600000Y-60960000D03*
X228600000Y-58420000D03*
X231140000Y-60960000D03*
X218440000Y-58420000D03*
X215900000Y-60960000D03*
X218440000Y-60960000D03*
X215900000Y-58420000D03*
X223520000Y-60960000D03*
X220980000Y-58420000D03*
X223520000Y-58420000D03*
X226060000Y-60960000D03*
X220980000Y-60960000D03*
X226060000Y-58420000D03*
X203200000Y-60960000D03*
X203200000Y-58420000D03*
X205740000Y-58420000D03*
X205740000Y-60960000D03*
X208280000Y-58420000D03*
X208280000Y-60960000D03*
X213360000Y-58420000D03*
X210820000Y-58420000D03*
X210820000Y-60960000D03*
X213360000Y-60960000D03*
X264160000Y-58420000D03*
X261620000Y-58420000D03*
X264160000Y-60960000D03*
X266700000Y-60960000D03*
X266700000Y-58420000D03*
X261620000Y-60960000D03*
X256540000Y-60960000D03*
X254000000Y-60960000D03*
X259080000Y-60960000D03*
X254000000Y-58420000D03*
X256540000Y-58420000D03*
X259080000Y-58420000D03*
X251460000Y-60960000D03*
X251460000Y-58420000D03*
X246380000Y-58420000D03*
X248920000Y-58420000D03*
X248920000Y-60960000D03*
X246380000Y-60960000D03*
X236220000Y-58420000D03*
X233680000Y-60960000D03*
X233680000Y-58420000D03*
X236220000Y-60960000D03*
X276860000Y-58420000D03*
X269240000Y-58420000D03*
X274320000Y-58420000D03*
X276860000Y-60960000D03*
X271780000Y-60960000D03*
X269240000Y-60960000D03*
X271780000Y-58420000D03*
X274320000Y-60960000D03*
X241300000Y-58420000D03*
X243840000Y-58420000D03*
X241300000Y-60960000D03*
X243840000Y-60960000D03*
X238760000Y-58420000D03*
X238760000Y-60960000D03*
X198120000Y-58420000D03*
X200660000Y-58420000D03*
X198120000Y-60960000D03*
X200660000Y-60960000D03*
X185420000Y-60960000D03*
X187960000Y-60960000D03*
X190500000Y-58420000D03*
X195580000Y-58420000D03*
X193040000Y-58420000D03*
X190500000Y-60960000D03*
X195580000Y-60960000D03*
X193040000Y-60960000D03*
X187960000Y-58420000D03*
X180340000Y-58420000D03*
X182880000Y-58420000D03*
X185420000Y-58420000D03*
X182880000Y-60960000D03*
X180340000Y-60960000D03*
X177800000Y-58420000D03*
X175260000Y-60960000D03*
X177800000Y-60960000D03*
X175260000Y-58420000D03*
X172720000Y-58420000D03*
X170180000Y-60960000D03*
X170180000Y-58420000D03*
X167640000Y-58420000D03*
X167640000Y-60960000D03*
X172720000Y-60960000D03*
X129540000Y-58420000D03*
X129540000Y-60960000D03*
X127000000Y-58420000D03*
X165100000Y-60960000D03*
X165100000Y-58420000D03*
X162560000Y-60960000D03*
X160020000Y-60960000D03*
X162560000Y-58420000D03*
X160020000Y-58420000D03*
X154940000Y-58420000D03*
X157480000Y-58420000D03*
X157480000Y-60960000D03*
X154940000Y-60960000D03*
X149860000Y-60960000D03*
X147320000Y-58420000D03*
X149860000Y-58420000D03*
X147320000Y-60960000D03*
X152400000Y-58420000D03*
X144780000Y-60960000D03*
X144780000Y-58420000D03*
X152400000Y-60960000D03*
X139700000Y-58420000D03*
X142240000Y-58420000D03*
X142240000Y-60960000D03*
X139700000Y-60960000D03*
X134620000Y-60960000D03*
X132080000Y-60960000D03*
X137160000Y-58420000D03*
X132080000Y-58420000D03*
X137160000Y-60960000D03*
X134620000Y-58420000D03*
X127000000Y-60960000D03*
X231140000Y-63500000D03*
X228600000Y-66040000D03*
X228600000Y-63500000D03*
X231140000Y-66040000D03*
X218440000Y-63500000D03*
X215900000Y-66040000D03*
X218440000Y-66040000D03*
X215900000Y-63500000D03*
X223520000Y-66040000D03*
X220980000Y-63500000D03*
X223520000Y-63500000D03*
X226060000Y-66040000D03*
X220980000Y-66040000D03*
X226060000Y-63500000D03*
X203200000Y-66040000D03*
X203200000Y-63500000D03*
X205740000Y-63500000D03*
X205740000Y-66040000D03*
X208280000Y-63500000D03*
X208280000Y-66040000D03*
X213360000Y-63500000D03*
X210820000Y-63500000D03*
X210820000Y-66040000D03*
X213360000Y-66040000D03*
X264160000Y-63500000D03*
X261620000Y-63500000D03*
X264160000Y-66040000D03*
X266700000Y-66040000D03*
X266700000Y-63500000D03*
X261620000Y-66040000D03*
X256540000Y-66040000D03*
X254000000Y-66040000D03*
X259080000Y-66040000D03*
X254000000Y-63500000D03*
X256540000Y-63500000D03*
X259080000Y-63500000D03*
X251460000Y-66040000D03*
X251460000Y-63500000D03*
X246380000Y-63500000D03*
X248920000Y-63500000D03*
X248920000Y-66040000D03*
X246380000Y-66040000D03*
X236220000Y-63500000D03*
X233680000Y-66040000D03*
X233680000Y-63500000D03*
X236220000Y-66040000D03*
X276860000Y-63500000D03*
X269240000Y-63500000D03*
X274320000Y-63500000D03*
X276860000Y-66040000D03*
X271780000Y-66040000D03*
X269240000Y-66040000D03*
X271780000Y-63500000D03*
X274320000Y-66040000D03*
X241300000Y-63500000D03*
X243840000Y-63500000D03*
X241300000Y-66040000D03*
X243840000Y-66040000D03*
X238760000Y-63500000D03*
X238760000Y-66040000D03*
X198120000Y-63500000D03*
X200660000Y-63500000D03*
X198120000Y-66040000D03*
X200660000Y-66040000D03*
X185420000Y-66040000D03*
X187960000Y-66040000D03*
X190500000Y-63500000D03*
X195580000Y-63500000D03*
X193040000Y-63500000D03*
X190500000Y-66040000D03*
X195580000Y-66040000D03*
X193040000Y-66040000D03*
X187960000Y-63500000D03*
X180340000Y-63500000D03*
X182880000Y-63500000D03*
X185420000Y-63500000D03*
X182880000Y-66040000D03*
X180340000Y-66040000D03*
X177800000Y-63500000D03*
X175260000Y-66040000D03*
X177800000Y-66040000D03*
X175260000Y-63500000D03*
X172720000Y-63500000D03*
X170180000Y-66040000D03*
X170180000Y-63500000D03*
X167640000Y-63500000D03*
X167640000Y-66040000D03*
X172720000Y-66040000D03*
X129540000Y-63500000D03*
X129540000Y-66040000D03*
X127000000Y-63500000D03*
X165100000Y-66040000D03*
X165100000Y-63500000D03*
X162560000Y-66040000D03*
X160020000Y-66040000D03*
X162560000Y-63500000D03*
X160020000Y-63500000D03*
X154940000Y-63500000D03*
X157480000Y-63500000D03*
X157480000Y-66040000D03*
X154940000Y-66040000D03*
X149860000Y-66040000D03*
X147320000Y-63500000D03*
X149860000Y-63500000D03*
X147320000Y-66040000D03*
X152400000Y-63500000D03*
X144780000Y-66040000D03*
X144780000Y-63500000D03*
X152400000Y-66040000D03*
X139700000Y-63500000D03*
X142240000Y-63500000D03*
X142240000Y-66040000D03*
X139700000Y-66040000D03*
X134620000Y-66040000D03*
X132080000Y-66040000D03*
X137160000Y-63500000D03*
X132080000Y-63500000D03*
X137160000Y-66040000D03*
X134620000Y-63500000D03*
X127000000Y-66040000D03*
X276860000Y-68580000D03*
X271780000Y-68580000D03*
X264160000Y-68580000D03*
X266700000Y-68580000D03*
X269240000Y-68580000D03*
X274320000Y-68580000D03*
X276860000Y-71120000D03*
X271780000Y-71120000D03*
X274320000Y-71120000D03*
X269240000Y-71120000D03*
X266700000Y-71120000D03*
X264160000Y-71120000D03*
X261620000Y-68580000D03*
X256540000Y-68580000D03*
X248920000Y-68580000D03*
X251460000Y-68580000D03*
X254000000Y-68580000D03*
X259080000Y-68580000D03*
X261620000Y-71120000D03*
X256540000Y-71120000D03*
X259080000Y-71120000D03*
X254000000Y-71120000D03*
X251460000Y-71120000D03*
X248920000Y-71120000D03*
X246380000Y-68580000D03*
X241300000Y-68580000D03*
X233680000Y-68580000D03*
X236220000Y-68580000D03*
X238760000Y-68580000D03*
X243840000Y-68580000D03*
X246380000Y-71120000D03*
X241300000Y-71120000D03*
X243840000Y-71120000D03*
X238760000Y-71120000D03*
X236220000Y-71120000D03*
X233680000Y-71120000D03*
X231140000Y-68580000D03*
X226060000Y-68580000D03*
X218440000Y-68580000D03*
X220980000Y-68580000D03*
X223520000Y-68580000D03*
X228600000Y-68580000D03*
X231140000Y-71120000D03*
X226060000Y-71120000D03*
X228600000Y-71120000D03*
X223520000Y-71120000D03*
X220980000Y-71120000D03*
X218440000Y-71120000D03*
X215900000Y-68580000D03*
X210820000Y-68580000D03*
X203200000Y-68580000D03*
X205740000Y-68580000D03*
X208280000Y-68580000D03*
X213360000Y-68580000D03*
X215900000Y-71120000D03*
X210820000Y-71120000D03*
X213360000Y-71120000D03*
X208280000Y-71120000D03*
X205740000Y-71120000D03*
X203200000Y-71120000D03*
X200660000Y-68580000D03*
X195580000Y-68580000D03*
X187960000Y-68580000D03*
X190500000Y-68580000D03*
X193040000Y-68580000D03*
X198120000Y-68580000D03*
X200660000Y-71120000D03*
X195580000Y-71120000D03*
X198120000Y-71120000D03*
X193040000Y-71120000D03*
X190500000Y-71120000D03*
X187960000Y-71120000D03*
X185420000Y-68580000D03*
X180340000Y-68580000D03*
X172720000Y-68580000D03*
X175260000Y-68580000D03*
X177800000Y-68580000D03*
X182880000Y-68580000D03*
X185420000Y-71120000D03*
X180340000Y-71120000D03*
X182880000Y-71120000D03*
X177800000Y-71120000D03*
X175260000Y-71120000D03*
X172720000Y-71120000D03*
X170180000Y-68580000D03*
X165100000Y-68580000D03*
X157480000Y-68580000D03*
X160020000Y-68580000D03*
X162560000Y-68580000D03*
X167640000Y-68580000D03*
X170180000Y-71120000D03*
X165100000Y-71120000D03*
X167640000Y-71120000D03*
X162560000Y-71120000D03*
X160020000Y-71120000D03*
X157480000Y-71120000D03*
X154940000Y-68580000D03*
X149860000Y-68580000D03*
X142240000Y-68580000D03*
X144780000Y-68580000D03*
X147320000Y-68580000D03*
X152400000Y-68580000D03*
X154940000Y-71120000D03*
X149860000Y-71120000D03*
X152400000Y-71120000D03*
X147320000Y-71120000D03*
X144780000Y-71120000D03*
X142240000Y-71120000D03*
X139700000Y-68580000D03*
X134620000Y-68580000D03*
X127000000Y-68580000D03*
X129540000Y-68580000D03*
X132080000Y-68580000D03*
X137160000Y-68580000D03*
X139700000Y-71120000D03*
X134620000Y-71120000D03*
X137160000Y-71120000D03*
X132080000Y-71120000D03*
X129540000Y-71120000D03*
X127000000Y-71120000D03*
X124460000Y-68580000D03*
X124460000Y-71120000D03*
X121920000Y-68580000D03*
X119380000Y-68580000D03*
X116840000Y-71120000D03*
X111760000Y-73660000D03*
X114300000Y-73660000D03*
X116840000Y-73660000D03*
X111760000Y-78740000D03*
X111760000Y-81280000D03*
X111760000Y-83820000D03*
X114300000Y-83820000D03*
X111760000Y-76200000D03*
X114300000Y-76200000D03*
X114300000Y-78740000D03*
X116840000Y-78740000D03*
X116840000Y-83820000D03*
X114300000Y-81280000D03*
X116840000Y-81280000D03*
X119380000Y-81280000D03*
X121920000Y-81280000D03*
X121920000Y-83820000D03*
X119380000Y-83820000D03*
X111760000Y-68580000D03*
X114300000Y-71120000D03*
X114300000Y-68580000D03*
X116840000Y-68580000D03*
X111760000Y-71120000D03*
X119380000Y-71120000D03*
X119380000Y-73660000D03*
X121920000Y-73660000D03*
X121920000Y-71120000D03*
X116840000Y-76200000D03*
X119380000Y-76200000D03*
X121920000Y-76200000D03*
X119380000Y-78740000D03*
X121920000Y-78740000D03*
X66040000Y-76200000D03*
X66040000Y-78740000D03*
X66040000Y-71120000D03*
X66040000Y-73660000D03*
X66040000Y-81280000D03*
X66040000Y-83820000D03*
X73660000Y-73660000D03*
X73660000Y-76200000D03*
X73660000Y-78740000D03*
X73660000Y-83820000D03*
X73660000Y-81280000D03*
X68580000Y-71120000D03*
X71120000Y-71120000D03*
X68580000Y-73660000D03*
X71120000Y-73660000D03*
X68580000Y-76200000D03*
X71120000Y-76200000D03*
X68580000Y-78740000D03*
X71120000Y-83820000D03*
X68580000Y-81280000D03*
X71120000Y-81280000D03*
X68580000Y-83820000D03*
X71120000Y-78740000D03*
X68580000Y-68580000D03*
X71120000Y-68580000D03*
X73660000Y-68580000D03*
X73660000Y-71120000D03*
X109220000Y-83820000D03*
X106680000Y-83820000D03*
X104140000Y-83820000D03*
X101600000Y-83820000D03*
X99060000Y-83820000D03*
X96520000Y-83820000D03*
X93980000Y-83820000D03*
X91440000Y-83820000D03*
X88900000Y-83820000D03*
X86360000Y-83820000D03*
X83820000Y-83820000D03*
X81280000Y-83820000D03*
X78740000Y-83820000D03*
X76200000Y-83820000D03*
X109220000Y-81280000D03*
X106680000Y-81280000D03*
X104140000Y-81280000D03*
X101600000Y-81280000D03*
X99060000Y-81280000D03*
X96520000Y-81280000D03*
X93980000Y-81280000D03*
X91440000Y-81280000D03*
X88900000Y-81280000D03*
X86360000Y-81280000D03*
X83820000Y-81280000D03*
X81280000Y-81280000D03*
X78740000Y-81280000D03*
X76200000Y-81280000D03*
X109220000Y-78740000D03*
X106680000Y-78740000D03*
X104140000Y-78740000D03*
X101600000Y-78740000D03*
X99060000Y-78740000D03*
X96520000Y-78740000D03*
X93980000Y-78740000D03*
X91440000Y-78740000D03*
X88900000Y-78740000D03*
X86360000Y-78740000D03*
X83820000Y-78740000D03*
X81280000Y-78740000D03*
X78740000Y-78740000D03*
X76200000Y-78740000D03*
X109220000Y-76200000D03*
X106680000Y-76200000D03*
X104140000Y-76200000D03*
X101600000Y-76200000D03*
X99060000Y-76200000D03*
X96520000Y-76200000D03*
X93980000Y-76200000D03*
X91440000Y-76200000D03*
X88900000Y-76200000D03*
X86360000Y-76200000D03*
X83820000Y-76200000D03*
X81280000Y-76200000D03*
X78740000Y-76200000D03*
X76200000Y-76200000D03*
X109220000Y-73660000D03*
X106680000Y-73660000D03*
X104140000Y-73660000D03*
X101600000Y-73660000D03*
X99060000Y-73660000D03*
X96520000Y-73660000D03*
X93980000Y-73660000D03*
X91440000Y-73660000D03*
X88900000Y-73660000D03*
X86360000Y-73660000D03*
X83820000Y-73660000D03*
X81280000Y-73660000D03*
X78740000Y-73660000D03*
X76200000Y-73660000D03*
X109220000Y-71120000D03*
X106680000Y-71120000D03*
X104140000Y-71120000D03*
X101600000Y-71120000D03*
X99060000Y-71120000D03*
X96520000Y-71120000D03*
X93980000Y-71120000D03*
X91440000Y-71120000D03*
X88900000Y-71120000D03*
X86360000Y-71120000D03*
X83820000Y-71120000D03*
X81280000Y-71120000D03*
X78740000Y-71120000D03*
X76200000Y-71120000D03*
X109220000Y-68580000D03*
X106680000Y-68580000D03*
X104140000Y-68580000D03*
X101600000Y-68580000D03*
X99060000Y-68580000D03*
X96520000Y-68580000D03*
X93980000Y-68580000D03*
X91440000Y-68580000D03*
X88900000Y-68580000D03*
X86360000Y-68580000D03*
X83820000Y-68580000D03*
X81280000Y-68580000D03*
X78740000Y-68580000D03*
D13*
X152400000Y-144780000D03*
D14*
X154940000Y-144780000D03*
X157480000Y-144780000D03*
X160020000Y-144780000D03*
X162560000Y-144780000D03*
X165100000Y-144780000D03*
X167640000Y-144780000D03*
X170180000Y-144780000D03*
D13*
X232410000Y-101600000D03*
D14*
X234950000Y-101600000D03*
X237490000Y-101600000D03*
X240030000Y-101600000D03*
X242570000Y-101600000D03*
X245110000Y-101600000D03*
X247650000Y-101600000D03*
X250190000Y-101600000D03*
D13*
X232410000Y-104140000D03*
D14*
X234950000Y-104140000D03*
X237490000Y-104140000D03*
X240030000Y-104140000D03*
X242570000Y-104140000D03*
X245110000Y-104140000D03*
X247650000Y-104140000D03*
X250190000Y-104140000D03*
D13*
X186690000Y-101600000D03*
D14*
X189230000Y-101600000D03*
X191770000Y-101600000D03*
X194310000Y-101600000D03*
X196850000Y-101600000D03*
X199390000Y-101600000D03*
X201930000Y-101600000D03*
X204470000Y-101600000D03*
D13*
X255270000Y-127000000D03*
D14*
X257810000Y-127000000D03*
X260350000Y-127000000D03*
X262890000Y-127000000D03*
X265430000Y-127000000D03*
X267970000Y-127000000D03*
X270510000Y-127000000D03*
X273050000Y-127000000D03*
D13*
X255270000Y-101600000D03*
D14*
X257810000Y-101600000D03*
X260350000Y-101600000D03*
X262890000Y-101600000D03*
X265430000Y-101600000D03*
X267970000Y-101600000D03*
X270510000Y-101600000D03*
X273050000Y-101600000D03*
D15*
X46990000Y-34290000D03*
D16*
X46990000Y-36830000D03*
D17*
X71440040Y-37899340D03*
X78740000Y-37899340D03*
X86039960Y-37899340D03*
X73738740Y-40401240D03*
X83741260Y-40401240D03*
X73738740Y-28199080D03*
X83741260Y-28199080D03*
X91760040Y-37899340D03*
X99060000Y-37899340D03*
X106359960Y-37899340D03*
X94058740Y-40401240D03*
X104061260Y-40401240D03*
X94058740Y-28199080D03*
X104061260Y-28199080D03*
D18*
X135240000Y-42350000D03*
X135240000Y-36000000D03*
X135240000Y-29650000D03*
X146440000Y-42350000D03*
X146440000Y-36000000D03*
X146440000Y-29650000D03*
D19*
X137140000Y-39200000D03*
D20*
X135010000Y-32850000D03*
X146440000Y-32850000D03*
D18*
X155560000Y-42350000D03*
X155560000Y-36000000D03*
X155560000Y-29650000D03*
X166760000Y-42350000D03*
X166760000Y-36000000D03*
X166760000Y-29650000D03*
D19*
X157460000Y-39200000D03*
D20*
X155330000Y-32850000D03*
X166760000Y-32850000D03*
D18*
X175880000Y-42350000D03*
X175880000Y-36000000D03*
X175880000Y-29650000D03*
X187080000Y-42350000D03*
X187080000Y-36000000D03*
X187080000Y-29650000D03*
D19*
X177780000Y-39200000D03*
D20*
X175650000Y-32850000D03*
X187080000Y-32850000D03*
D18*
X196200000Y-42350000D03*
X196200000Y-36000000D03*
X196200000Y-29650000D03*
X207400000Y-42350000D03*
X207400000Y-36000000D03*
X207400000Y-29650000D03*
D19*
X198100000Y-39200000D03*
D20*
X195970000Y-32850000D03*
X207400000Y-32850000D03*
D18*
X216520000Y-42350000D03*
X216520000Y-36000000D03*
X216520000Y-29650000D03*
X227720000Y-42350000D03*
X227720000Y-36000000D03*
X227720000Y-29650000D03*
D19*
X218420000Y-39200000D03*
D20*
X216290000Y-32850000D03*
X227720000Y-32850000D03*
D18*
X236840000Y-42350000D03*
X236840000Y-36000000D03*
X236840000Y-29650000D03*
X248040000Y-42350000D03*
X248040000Y-36000000D03*
X248040000Y-29650000D03*
D19*
X238740000Y-39200000D03*
D20*
X236610000Y-32850000D03*
X248040000Y-32850000D03*
D13*
X38100000Y-147320000D03*
D14*
X40640000Y-147320000D03*
X43180000Y-147320000D03*
X45720000Y-147320000D03*
X48260000Y-147320000D03*
X50800000Y-147320000D03*
X53340000Y-147320000D03*
X55880000Y-147320000D03*
D13*
X58420000Y-147320000D03*
D14*
X60960000Y-147320000D03*
X63500000Y-147320000D03*
X66040000Y-147320000D03*
X68580000Y-147320000D03*
X71120000Y-147320000D03*
X73660000Y-147320000D03*
X76200000Y-147320000D03*
D13*
X209550000Y-101600000D03*
D14*
X212090000Y-101600000D03*
X214630000Y-101600000D03*
X217170000Y-101600000D03*
X219710000Y-101600000D03*
X222250000Y-101600000D03*
X224790000Y-101600000D03*
X227330000Y-101600000D03*
D13*
X186690000Y-124460000D03*
D14*
X189230000Y-124460000D03*
X191770000Y-124460000D03*
X194310000Y-124460000D03*
X196850000Y-124460000D03*
X199390000Y-124460000D03*
X201930000Y-124460000D03*
X204470000Y-124460000D03*
D13*
X209550000Y-124460000D03*
D14*
X212090000Y-124460000D03*
X214630000Y-124460000D03*
X217170000Y-124460000D03*
X219710000Y-124460000D03*
X222250000Y-124460000D03*
X224790000Y-124460000D03*
X227330000Y-124460000D03*
D13*
X232410000Y-124460000D03*
D14*
X234950000Y-124460000D03*
X237490000Y-124460000D03*
X240030000Y-124460000D03*
X242570000Y-124460000D03*
X245110000Y-124460000D03*
X247650000Y-124460000D03*
X250190000Y-124460000D03*
D13*
X255270000Y-124460000D03*
D14*
X257810000Y-124460000D03*
X260350000Y-124460000D03*
X262890000Y-124460000D03*
X265430000Y-124460000D03*
X267970000Y-124460000D03*
X270510000Y-124460000D03*
X273050000Y-124460000D03*
D17*
X51120040Y-37899340D03*
X58420000Y-37899340D03*
X65719960Y-37899340D03*
X53418740Y-40401240D03*
X63421260Y-40401240D03*
X53418740Y-28199080D03*
X63421260Y-28199080D03*
D18*
X257160000Y-42350000D03*
X257160000Y-36000000D03*
X257160000Y-29650000D03*
X268360000Y-42350000D03*
X268360000Y-36000000D03*
X268360000Y-29650000D03*
D19*
X259060000Y-39200000D03*
D20*
X256930000Y-32850000D03*
X268360000Y-32850000D03*
D13*
X220980000Y-144780000D03*
D14*
X223520000Y-144780000D03*
X226060000Y-144780000D03*
X228600000Y-144780000D03*
X231140000Y-144780000D03*
X233680000Y-144780000D03*
X236220000Y-144780000D03*
X238760000Y-144780000D03*
D13*
X243840000Y-144780000D03*
D14*
X246380000Y-144780000D03*
X248920000Y-144780000D03*
X251460000Y-144780000D03*
X254000000Y-144780000D03*
X256540000Y-144780000D03*
X259080000Y-144780000D03*
X261620000Y-144780000D03*
D18*
X114920000Y-42350000D03*
X114920000Y-36000000D03*
X114920000Y-29650000D03*
X126120000Y-42350000D03*
X126120000Y-36000000D03*
X126120000Y-29650000D03*
D19*
X116820000Y-39200000D03*
D20*
X114690000Y-32850000D03*
X126120000Y-32850000D03*
D13*
X167640000Y-96520000D03*
D14*
X165100000Y-96520000D03*
X162560000Y-96520000D03*
D13*
X114300000Y-53975000D03*
D14*
X116840000Y-53975000D03*
X119380000Y-53975000D03*
X121920000Y-53975000D03*
X124460000Y-53975000D03*
X127000000Y-53975000D03*
D13*
X134620000Y-53975000D03*
D14*
X137160000Y-53975000D03*
X139700000Y-53975000D03*
X142240000Y-53975000D03*
X144780000Y-53975000D03*
X147320000Y-53975000D03*
D13*
X154940000Y-53975000D03*
D14*
X157480000Y-53975000D03*
X160020000Y-53975000D03*
X162560000Y-53975000D03*
X165100000Y-53975000D03*
X167640000Y-53975000D03*
D13*
X175260000Y-53975000D03*
D14*
X177800000Y-53975000D03*
X180340000Y-53975000D03*
X182880000Y-53975000D03*
X185420000Y-53975000D03*
X187960000Y-53975000D03*
D13*
X195580000Y-53975000D03*
D14*
X198120000Y-53975000D03*
X200660000Y-53975000D03*
X203200000Y-53975000D03*
X205740000Y-53975000D03*
X208280000Y-53975000D03*
D13*
X215900000Y-53975000D03*
D14*
X218440000Y-53975000D03*
X220980000Y-53975000D03*
X223520000Y-53975000D03*
X226060000Y-53975000D03*
X228600000Y-53975000D03*
D13*
X236220000Y-53975000D03*
D14*
X238760000Y-53975000D03*
X241300000Y-53975000D03*
X243840000Y-53975000D03*
X246380000Y-53975000D03*
X248920000Y-53975000D03*
D13*
X256540000Y-53975000D03*
D14*
X259080000Y-53975000D03*
X261620000Y-53975000D03*
X264160000Y-53975000D03*
X266700000Y-53975000D03*
X269240000Y-53975000D03*
D13*
X129540000Y-124460000D03*
D14*
X132080000Y-124460000D03*
X134620000Y-124460000D03*
X137160000Y-124460000D03*
X139700000Y-124460000D03*
X142240000Y-124460000D03*
X144780000Y-124460000D03*
X147320000Y-124460000D03*
D13*
X152400000Y-124460000D03*
D14*
X154940000Y-124460000D03*
X157480000Y-124460000D03*
X160020000Y-124460000D03*
X162560000Y-124460000D03*
X165100000Y-124460000D03*
X167640000Y-124460000D03*
X170180000Y-124460000D03*
D13*
X129540000Y-144780000D03*
D14*
X132080000Y-144780000D03*
X134620000Y-144780000D03*
X137160000Y-144780000D03*
X139700000Y-144780000D03*
X142240000Y-144780000D03*
X144780000Y-144780000D03*
X147320000Y-144780000D03*
D13*
X175260000Y-144780000D03*
D14*
X177800000Y-144780000D03*
X180340000Y-144780000D03*
X182880000Y-144780000D03*
X185420000Y-144780000D03*
X187960000Y-144780000D03*
X190500000Y-144780000D03*
X193040000Y-144780000D03*
D13*
X198120000Y-144780000D03*
D14*
X200660000Y-144780000D03*
X203200000Y-144780000D03*
X205740000Y-144780000D03*
X208280000Y-144780000D03*
X210820000Y-144780000D03*
X213360000Y-144780000D03*
X215900000Y-144780000D03*
D13*
X142240000Y-96520000D03*
D14*
X139700000Y-96520000D03*
X137160000Y-96520000D03*
D13*
X154940000Y-78740000D03*
D14*
X157480000Y-78740000D03*
X160020000Y-78740000D03*
X162560000Y-78740000D03*
X165100000Y-78740000D03*
X167640000Y-78740000D03*
D13*
X129540000Y-78740000D03*
D14*
X132080000Y-78740000D03*
X134620000Y-78740000D03*
X137160000Y-78740000D03*
X139700000Y-78740000D03*
X142240000Y-78740000D03*
D13*
X255270000Y-121920000D03*
D14*
X257810000Y-121920000D03*
X260350000Y-121920000D03*
X262890000Y-121920000D03*
X265430000Y-121920000D03*
X267970000Y-121920000D03*
X270510000Y-121920000D03*
X273050000Y-121920000D03*
D13*
X232410000Y-121920000D03*
D14*
X234950000Y-121920000D03*
X237490000Y-121920000D03*
X240030000Y-121920000D03*
X242570000Y-121920000D03*
X245110000Y-121920000D03*
X247650000Y-121920000D03*
X250190000Y-121920000D03*
D13*
X209550000Y-121920000D03*
D14*
X212090000Y-121920000D03*
X214630000Y-121920000D03*
X217170000Y-121920000D03*
X219710000Y-121920000D03*
X222250000Y-121920000D03*
X224790000Y-121920000D03*
X227330000Y-121920000D03*
D13*
X186690000Y-121920000D03*
D14*
X189230000Y-121920000D03*
X191770000Y-121920000D03*
X194310000Y-121920000D03*
X196850000Y-121920000D03*
X199390000Y-121920000D03*
X201930000Y-121920000D03*
X204470000Y-121920000D03*
D13*
X255270000Y-99060000D03*
D14*
X257810000Y-99060000D03*
X260350000Y-99060000D03*
X262890000Y-99060000D03*
X265430000Y-99060000D03*
X267970000Y-99060000D03*
X270510000Y-99060000D03*
X273050000Y-99060000D03*
D13*
X232410000Y-99060000D03*
D14*
X234950000Y-99060000D03*
X237490000Y-99060000D03*
X240030000Y-99060000D03*
X242570000Y-99060000D03*
X245110000Y-99060000D03*
X247650000Y-99060000D03*
X250190000Y-99060000D03*
D13*
X209550000Y-99060000D03*
D14*
X212090000Y-99060000D03*
X214630000Y-99060000D03*
X217170000Y-99060000D03*
X219710000Y-99060000D03*
X222250000Y-99060000D03*
X224790000Y-99060000D03*
X227330000Y-99060000D03*
D13*
X186690000Y-99060000D03*
D14*
X189230000Y-99060000D03*
X191770000Y-99060000D03*
X194310000Y-99060000D03*
X196850000Y-99060000D03*
X199390000Y-99060000D03*
X201930000Y-99060000D03*
X204470000Y-99060000D03*
D13*
X232410000Y-127000000D03*
D14*
X234950000Y-127000000D03*
X237490000Y-127000000D03*
X240030000Y-127000000D03*
X242570000Y-127000000D03*
X245110000Y-127000000D03*
X247650000Y-127000000D03*
X250190000Y-127000000D03*
D13*
X209550000Y-127000000D03*
D14*
X212090000Y-127000000D03*
X214630000Y-127000000D03*
X217170000Y-127000000D03*
X219710000Y-127000000D03*
X222250000Y-127000000D03*
X224790000Y-127000000D03*
X227330000Y-127000000D03*
D13*
X186690000Y-127000000D03*
D14*
X189230000Y-127000000D03*
X191770000Y-127000000D03*
X194310000Y-127000000D03*
X196850000Y-127000000D03*
X199390000Y-127000000D03*
X201930000Y-127000000D03*
X204470000Y-127000000D03*
D13*
X255270000Y-104140000D03*
D14*
X257810000Y-104140000D03*
X260350000Y-104140000D03*
X262890000Y-104140000D03*
X265430000Y-104140000D03*
X267970000Y-104140000D03*
X270510000Y-104140000D03*
X273050000Y-104140000D03*
D13*
X186690000Y-104140000D03*
D14*
X189230000Y-104140000D03*
X191770000Y-104140000D03*
X194310000Y-104140000D03*
X196850000Y-104140000D03*
X199390000Y-104140000D03*
X201930000Y-104140000D03*
X204470000Y-104140000D03*
D13*
X209550000Y-104140000D03*
D14*
X212090000Y-104140000D03*
X214630000Y-104140000D03*
X217170000Y-104140000D03*
X219710000Y-104140000D03*
X222250000Y-104140000D03*
X224790000Y-104140000D03*
X227330000Y-104140000D03*
D21*
X50800000Y-116840000D03*
X30480000Y-119380000D03*
X30480000Y-105410000D03*
D22*
X48260000Y-116840000D03*
X45720000Y-116840000D03*
X35560000Y-119380000D03*
X33020000Y-119380000D03*
X38100000Y-119380000D03*
X127000000Y-106045000D03*
X124460000Y-106045000D03*
X144272000Y-102997000D03*
X144272000Y-100457000D03*
X113030000Y-92710000D03*
X113030000Y-97790000D03*
X113030000Y-95250000D03*
X152400000Y-106045000D03*
X149860000Y-106045000D03*
X81280000Y-58420000D03*
D13*
X129540000Y-127000000D03*
D14*
X132080000Y-127000000D03*
X134620000Y-127000000D03*
X137160000Y-127000000D03*
X139700000Y-127000000D03*
X142240000Y-127000000D03*
X144780000Y-127000000D03*
X147320000Y-127000000D03*
D13*
X152400000Y-127000000D03*
D14*
X154940000Y-127000000D03*
X157480000Y-127000000D03*
X160020000Y-127000000D03*
X162560000Y-127000000D03*
X165100000Y-127000000D03*
X167640000Y-127000000D03*
X170180000Y-127000000D03*
D13*
X129540000Y-147320000D03*
D14*
X132080000Y-147320000D03*
X134620000Y-147320000D03*
X137160000Y-147320000D03*
X139700000Y-147320000D03*
X142240000Y-147320000D03*
X144780000Y-147320000D03*
X147320000Y-147320000D03*
D13*
X152400000Y-147320000D03*
D14*
X154940000Y-147320000D03*
X157480000Y-147320000D03*
X160020000Y-147320000D03*
X162560000Y-147320000D03*
X165100000Y-147320000D03*
X167640000Y-147320000D03*
X170180000Y-147320000D03*
D13*
X175260000Y-147320000D03*
D14*
X177800000Y-147320000D03*
X180340000Y-147320000D03*
X182880000Y-147320000D03*
X185420000Y-147320000D03*
X187960000Y-147320000D03*
X190500000Y-147320000D03*
X193040000Y-147320000D03*
D13*
X198120000Y-147320000D03*
D14*
X200660000Y-147320000D03*
X203200000Y-147320000D03*
X205740000Y-147320000D03*
X208280000Y-147320000D03*
X210820000Y-147320000D03*
X213360000Y-147320000D03*
X215900000Y-147320000D03*
D13*
X220980000Y-147320000D03*
D14*
X223520000Y-147320000D03*
X226060000Y-147320000D03*
X228600000Y-147320000D03*
X231140000Y-147320000D03*
X233680000Y-147320000D03*
X236220000Y-147320000D03*
X238760000Y-147320000D03*
D13*
X243840000Y-147320000D03*
D14*
X246380000Y-147320000D03*
X248920000Y-147320000D03*
X251460000Y-147320000D03*
X254000000Y-147320000D03*
X256540000Y-147320000D03*
X259080000Y-147320000D03*
X261620000Y-147320000D03*
D23*
X182880000Y-121920000D03*
X182880000Y-99060000D03*
X172720000Y-99060000D03*
X182880000Y-127000000D03*
X182880000Y-104140000D03*
X124460000Y-147320000D03*
X124460000Y-127000000D03*
D13*
X119380000Y-110490000D03*
D14*
X116840000Y-110490000D03*
X114300000Y-110490000D03*
X111760000Y-110490000D03*
X109220000Y-110490000D03*
D13*
X161340800Y-104241600D03*
D14*
X163880800Y-104241600D03*
X166420800Y-104241600D03*
X168960800Y-104241600D03*
D21*
X27940000Y-60960000D03*
D22*
X140208000Y-102997000D03*
X140208000Y-100457000D03*
X109220000Y-92710000D03*
X109220000Y-97790000D03*
X109220000Y-95250000D03*
X127000000Y-99695000D03*
X124460000Y-99695000D03*
X152400000Y-99695000D03*
X149860000Y-99695000D03*
D12*
X76200000Y-68580000D03*
D22*
X83820000Y-127000000D03*
X88900000Y-127000000D03*
X91440000Y-127000000D03*
X55880000Y-78740000D03*
X81280000Y-116840000D03*
X86360000Y-127000000D03*
X78740000Y-132080000D03*
X93980000Y-101600000D03*
X55880000Y-71120000D03*
X73660000Y-96520000D03*
D23*
X172720000Y-83820000D03*
D22*
X55880000Y-93980000D03*
X55880000Y-86360000D03*
D23*
X129540000Y-134620000D03*
X119380000Y-142240000D03*
X175260000Y-104140000D03*
D22*
X116967000Y-97536000D03*
X116967000Y-100076000D03*
X120777000Y-97536000D03*
X120777000Y-100076000D03*
D24*
X265430000Y-132080000D03*
D25*
X265430000Y-134620000D03*
X265430000Y-137160000D03*
X265430000Y-139700000D03*
X265430000Y-142240000D03*
D22*
X66040000Y-96520000D03*
X60960000Y-96520000D03*
X63500000Y-114300000D03*
X66040000Y-114300000D03*
X68580000Y-114300000D03*
X71120000Y-114300000D03*
X73660000Y-114300000D03*
X76200000Y-114300000D03*
X78740000Y-114300000D03*
X81280000Y-114300000D03*
X83820000Y-114300000D03*
X86360000Y-114300000D03*
X88900000Y-114300000D03*
X91440000Y-114300000D03*
X60960000Y-114300000D03*
X91440000Y-99060000D03*
X88900000Y-99060000D03*
X86360000Y-99060000D03*
X83820000Y-99060000D03*
X81280000Y-99060000D03*
X78740000Y-99060000D03*
X76200000Y-99060000D03*
X73660000Y-99060000D03*
X71120000Y-99060000D03*
X68580000Y-99060000D03*
X66040000Y-99060000D03*
X78740000Y-106680000D03*
X81280000Y-106680000D03*
X83820000Y-106680000D03*
X86360000Y-106680000D03*
X88900000Y-106680000D03*
X88900000Y-104140000D03*
X86360000Y-104140000D03*
X83820000Y-104140000D03*
X81280000Y-104140000D03*
X78740000Y-104140000D03*
X58420000Y-99060000D03*
X60960000Y-99060000D03*
X63500000Y-99060000D03*
X91440000Y-101600000D03*
X91440000Y-104140000D03*
X91440000Y-106680000D03*
X91440000Y-109220000D03*
X91440000Y-111760000D03*
X58420000Y-114300000D03*
X76200000Y-104140000D03*
X68580000Y-101600000D03*
X71120000Y-101600000D03*
X73660000Y-106680000D03*
X73660000Y-104140000D03*
X66040000Y-101600000D03*
X60960000Y-101600000D03*
X76200000Y-106680000D03*
M02*
