G04 #@! TF.FileFunction,Soldermask,Top*
%FSLAX46Y46*%
G04 Gerber Fmt 4.6, Leading zero omitted, Abs format (unit mm)*
G04 Created by KiCad (PCBNEW 4.0.1-stable) date 2/7/2016 5:33:15 PM*
%MOMM*%
G01*
G04 APERTURE LIST*
%ADD10C,0.100000*%
%ADD11C,1.016000*%
%ADD12C,0.010000*%
%ADD13C,2.279600*%
%ADD14R,2.127200X2.432000*%
%ADD15O,2.127200X2.432000*%
%ADD16R,1.150000X1.200000*%
%ADD17R,2.432000X2.432000*%
%ADD18O,2.432000X2.432000*%
%ADD19R,1.300000X0.900000*%
%ADD20R,1.670000X1.035000*%
%ADD21R,2.630000X2.200000*%
%ADD22R,2.200000X2.630000*%
%ADD23R,1.619200X2.635200*%
%ADD24R,4.006800X2.599640*%
%ADD25C,2.686000*%
%ADD26C,3.400000*%
%ADD27C,2.900000*%
%ADD28C,2.400000*%
%ADD29R,0.900000X1.300000*%
%ADD30R,0.908000X1.543000*%
%ADD31R,1.100000X0.650000*%
%ADD32R,0.650000X1.100000*%
%ADD33R,2.125000X2.125000*%
%ADD34R,1.200000X1.900000*%
%ADD35R,1.800000X2.300000*%
%ADD36R,2.300000X1.800000*%
%ADD37R,1.050000X1.460000*%
%ADD38R,1.799540X1.700480*%
%ADD39R,1.200000X1.150000*%
%ADD40R,1.543000X0.908000*%
%ADD41R,1.035000X1.670000*%
%ADD42R,2.635200X2.635200*%
%ADD43C,1.924000*%
%ADD44C,4.718000*%
%ADD45C,2.305000*%
%ADD46R,2.630000X2.770000*%
%ADD47R,2.800300X4.400500*%
%ADD48R,2.000000X1.400000*%
%ADD49R,1.400000X3.600000*%
%ADD50R,2.432000X2.127200*%
%ADD51O,2.432000X2.127200*%
G04 APERTURE END LIST*
D10*
D11*
X214376000Y-49530000D02*
G75*
G03X214376000Y-49530000I-2286000J0D01*
G01*
X153416000Y-49530000D02*
G75*
G03X153416000Y-49530000I-2286000J0D01*
G01*
X276606000Y-31750000D02*
G75*
G03X276606000Y-31750000I-2286000J0D01*
G01*
X34036000Y-31750000D02*
G75*
G03X34036000Y-31750000I-2286000J0D01*
G01*
D12*
G36*
X147800321Y-81945206D02*
X148034963Y-81947570D01*
X148264191Y-81951499D01*
X148482316Y-81956878D01*
X148683653Y-81963595D01*
X148862515Y-81971534D01*
X149013215Y-81980581D01*
X149130067Y-81990622D01*
X149196287Y-81999454D01*
X149401611Y-82046146D01*
X149573135Y-82110559D01*
X149713834Y-82196253D01*
X149826684Y-82306788D01*
X149914659Y-82445723D01*
X149980734Y-82616619D01*
X150027885Y-82823036D01*
X150055103Y-83027078D01*
X150067975Y-83184179D01*
X150078256Y-83371713D01*
X150086015Y-83584157D01*
X150091323Y-83815989D01*
X150094251Y-84061688D01*
X150094869Y-84315729D01*
X150093248Y-84572592D01*
X150089458Y-84826754D01*
X150083570Y-85072693D01*
X150075654Y-85304885D01*
X150065781Y-85517810D01*
X150054020Y-85705944D01*
X150040444Y-85863766D01*
X150025121Y-85985753D01*
X150016750Y-86031948D01*
X149967465Y-86215986D01*
X149901473Y-86369981D01*
X149815078Y-86496608D01*
X149704584Y-86598544D01*
X149566295Y-86678463D01*
X149396516Y-86739041D01*
X149191550Y-86782956D01*
X148947702Y-86812881D01*
X148936801Y-86813850D01*
X148856577Y-86818692D01*
X148738072Y-86822840D01*
X148587078Y-86826294D01*
X148409387Y-86829058D01*
X148210792Y-86831132D01*
X147997085Y-86832518D01*
X147774060Y-86833219D01*
X147547509Y-86833234D01*
X147323224Y-86832567D01*
X147106998Y-86831219D01*
X146904625Y-86829191D01*
X146721896Y-86826485D01*
X146564604Y-86823102D01*
X146438542Y-86819045D01*
X146349502Y-86814315D01*
X146334653Y-86813113D01*
X146096243Y-86784012D01*
X145896411Y-86741656D01*
X145731008Y-86683998D01*
X145595883Y-86608992D01*
X145486886Y-86514589D01*
X145399868Y-86398743D01*
X145364484Y-86334511D01*
X145331198Y-86260312D01*
X145302462Y-86178280D01*
X145277976Y-86084900D01*
X145257440Y-85976655D01*
X145240552Y-85850027D01*
X145227014Y-85701501D01*
X145216523Y-85527559D01*
X145208781Y-85324684D01*
X145203487Y-85089360D01*
X145200340Y-84818070D01*
X145200105Y-84761813D01*
X145313808Y-84761813D01*
X145322479Y-84953164D01*
X145340331Y-85122684D01*
X145367562Y-85262828D01*
X145396885Y-85350202D01*
X145456756Y-85440225D01*
X145545114Y-85518981D01*
X145646565Y-85574562D01*
X145709877Y-85592259D01*
X145767938Y-85603830D01*
X145809941Y-85621754D01*
X145839989Y-85653205D01*
X145862185Y-85705358D01*
X145880631Y-85785389D01*
X145899429Y-85900472D01*
X145904136Y-85931992D01*
X145940301Y-86135906D01*
X145983281Y-86300234D01*
X146034930Y-86429285D01*
X146097100Y-86527366D01*
X146171647Y-86598786D01*
X146198867Y-86616988D01*
X146214691Y-86625798D01*
X146233310Y-86633321D01*
X146258117Y-86639658D01*
X146292507Y-86644909D01*
X146339875Y-86649173D01*
X146403615Y-86652551D01*
X146487122Y-86655143D01*
X146593790Y-86657049D01*
X146727013Y-86658369D01*
X146890187Y-86659203D01*
X147086704Y-86659651D01*
X147319961Y-86659813D01*
X147593352Y-86659790D01*
X147650200Y-86659773D01*
X147895606Y-86659383D01*
X148129762Y-86658413D01*
X148348615Y-86656918D01*
X148548112Y-86654954D01*
X148724199Y-86652577D01*
X148872823Y-86649842D01*
X148989931Y-86646805D01*
X149071468Y-86643522D01*
X149113382Y-86640049D01*
X149115596Y-86639613D01*
X149187939Y-86612590D01*
X149251309Y-86572908D01*
X149256486Y-86568357D01*
X149299494Y-86522010D01*
X149331929Y-86468243D01*
X149355626Y-86399771D01*
X149372414Y-86309308D01*
X149384127Y-86189568D01*
X149392597Y-86033265D01*
X149392908Y-86025814D01*
X149399201Y-85886390D01*
X149407039Y-85784219D01*
X149419758Y-85712420D01*
X149440698Y-85664109D01*
X149473199Y-85632402D01*
X149520598Y-85610417D01*
X149586235Y-85591271D01*
X149606234Y-85586030D01*
X149725578Y-85550229D01*
X149810926Y-85509648D01*
X149869616Y-85455795D01*
X149908984Y-85380175D01*
X149936369Y-85274296D01*
X149950956Y-85186990D01*
X149961614Y-85085339D01*
X149969317Y-84950514D01*
X149974077Y-84792993D01*
X149975904Y-84623255D01*
X149974809Y-84451775D01*
X149970803Y-84289032D01*
X149963897Y-84145502D01*
X149954103Y-84031665D01*
X149949709Y-83998904D01*
X149906759Y-83773435D01*
X149849573Y-83553441D01*
X149782204Y-83353097D01*
X149729547Y-83228722D01*
X149595860Y-82995700D01*
X149424464Y-82778776D01*
X149220090Y-82581797D01*
X148987469Y-82408607D01*
X148731333Y-82263051D01*
X148456412Y-82148974D01*
X148364785Y-82119609D01*
X148171681Y-82076690D01*
X147949052Y-82051809D01*
X147707510Y-82044566D01*
X147457671Y-82054562D01*
X147210152Y-82081396D01*
X146975566Y-82124670D01*
X146778227Y-82179347D01*
X146527066Y-82282811D01*
X146289056Y-82419081D01*
X146071978Y-82582451D01*
X145883612Y-82767212D01*
X145758070Y-82927686D01*
X145691645Y-83035436D01*
X145619690Y-83169189D01*
X145549671Y-83313517D01*
X145489052Y-83452988D01*
X145445299Y-83572172D01*
X145443484Y-83577980D01*
X145401233Y-83741800D01*
X145366973Y-83929078D01*
X145340902Y-84132266D01*
X145323218Y-84343817D01*
X145314121Y-84556182D01*
X145313808Y-84761813D01*
X145200105Y-84761813D01*
X145199040Y-84507296D01*
X145198965Y-84396469D01*
X145199798Y-84060669D01*
X145202569Y-83765720D01*
X145207729Y-83508325D01*
X145215727Y-83285186D01*
X145227014Y-83093005D01*
X145242038Y-82928484D01*
X145261252Y-82788327D01*
X145285103Y-82669234D01*
X145314043Y-82567910D01*
X145348521Y-82481056D01*
X145388987Y-82405374D01*
X145435892Y-82337566D01*
X145488346Y-82275786D01*
X145554483Y-82210369D01*
X145625364Y-82154946D01*
X145705299Y-82108547D01*
X145798602Y-82070204D01*
X145909583Y-82038947D01*
X146042555Y-82013807D01*
X146201829Y-81993815D01*
X146391717Y-81978002D01*
X146616532Y-81965398D01*
X146880584Y-81955035D01*
X146921331Y-81953695D01*
X147120768Y-81948653D01*
X147337536Y-81945633D01*
X147565950Y-81944523D01*
X147800321Y-81945206D01*
X147800321Y-81945206D01*
G37*
X147800321Y-81945206D02*
X148034963Y-81947570D01*
X148264191Y-81951499D01*
X148482316Y-81956878D01*
X148683653Y-81963595D01*
X148862515Y-81971534D01*
X149013215Y-81980581D01*
X149130067Y-81990622D01*
X149196287Y-81999454D01*
X149401611Y-82046146D01*
X149573135Y-82110559D01*
X149713834Y-82196253D01*
X149826684Y-82306788D01*
X149914659Y-82445723D01*
X149980734Y-82616619D01*
X150027885Y-82823036D01*
X150055103Y-83027078D01*
X150067975Y-83184179D01*
X150078256Y-83371713D01*
X150086015Y-83584157D01*
X150091323Y-83815989D01*
X150094251Y-84061688D01*
X150094869Y-84315729D01*
X150093248Y-84572592D01*
X150089458Y-84826754D01*
X150083570Y-85072693D01*
X150075654Y-85304885D01*
X150065781Y-85517810D01*
X150054020Y-85705944D01*
X150040444Y-85863766D01*
X150025121Y-85985753D01*
X150016750Y-86031948D01*
X149967465Y-86215986D01*
X149901473Y-86369981D01*
X149815078Y-86496608D01*
X149704584Y-86598544D01*
X149566295Y-86678463D01*
X149396516Y-86739041D01*
X149191550Y-86782956D01*
X148947702Y-86812881D01*
X148936801Y-86813850D01*
X148856577Y-86818692D01*
X148738072Y-86822840D01*
X148587078Y-86826294D01*
X148409387Y-86829058D01*
X148210792Y-86831132D01*
X147997085Y-86832518D01*
X147774060Y-86833219D01*
X147547509Y-86833234D01*
X147323224Y-86832567D01*
X147106998Y-86831219D01*
X146904625Y-86829191D01*
X146721896Y-86826485D01*
X146564604Y-86823102D01*
X146438542Y-86819045D01*
X146349502Y-86814315D01*
X146334653Y-86813113D01*
X146096243Y-86784012D01*
X145896411Y-86741656D01*
X145731008Y-86683998D01*
X145595883Y-86608992D01*
X145486886Y-86514589D01*
X145399868Y-86398743D01*
X145364484Y-86334511D01*
X145331198Y-86260312D01*
X145302462Y-86178280D01*
X145277976Y-86084900D01*
X145257440Y-85976655D01*
X145240552Y-85850027D01*
X145227014Y-85701501D01*
X145216523Y-85527559D01*
X145208781Y-85324684D01*
X145203487Y-85089360D01*
X145200340Y-84818070D01*
X145200105Y-84761813D01*
X145313808Y-84761813D01*
X145322479Y-84953164D01*
X145340331Y-85122684D01*
X145367562Y-85262828D01*
X145396885Y-85350202D01*
X145456756Y-85440225D01*
X145545114Y-85518981D01*
X145646565Y-85574562D01*
X145709877Y-85592259D01*
X145767938Y-85603830D01*
X145809941Y-85621754D01*
X145839989Y-85653205D01*
X145862185Y-85705358D01*
X145880631Y-85785389D01*
X145899429Y-85900472D01*
X145904136Y-85931992D01*
X145940301Y-86135906D01*
X145983281Y-86300234D01*
X146034930Y-86429285D01*
X146097100Y-86527366D01*
X146171647Y-86598786D01*
X146198867Y-86616988D01*
X146214691Y-86625798D01*
X146233310Y-86633321D01*
X146258117Y-86639658D01*
X146292507Y-86644909D01*
X146339875Y-86649173D01*
X146403615Y-86652551D01*
X146487122Y-86655143D01*
X146593790Y-86657049D01*
X146727013Y-86658369D01*
X146890187Y-86659203D01*
X147086704Y-86659651D01*
X147319961Y-86659813D01*
X147593352Y-86659790D01*
X147650200Y-86659773D01*
X147895606Y-86659383D01*
X148129762Y-86658413D01*
X148348615Y-86656918D01*
X148548112Y-86654954D01*
X148724199Y-86652577D01*
X148872823Y-86649842D01*
X148989931Y-86646805D01*
X149071468Y-86643522D01*
X149113382Y-86640049D01*
X149115596Y-86639613D01*
X149187939Y-86612590D01*
X149251309Y-86572908D01*
X149256486Y-86568357D01*
X149299494Y-86522010D01*
X149331929Y-86468243D01*
X149355626Y-86399771D01*
X149372414Y-86309308D01*
X149384127Y-86189568D01*
X149392597Y-86033265D01*
X149392908Y-86025814D01*
X149399201Y-85886390D01*
X149407039Y-85784219D01*
X149419758Y-85712420D01*
X149440698Y-85664109D01*
X149473199Y-85632402D01*
X149520598Y-85610417D01*
X149586235Y-85591271D01*
X149606234Y-85586030D01*
X149725578Y-85550229D01*
X149810926Y-85509648D01*
X149869616Y-85455795D01*
X149908984Y-85380175D01*
X149936369Y-85274296D01*
X149950956Y-85186990D01*
X149961614Y-85085339D01*
X149969317Y-84950514D01*
X149974077Y-84792993D01*
X149975904Y-84623255D01*
X149974809Y-84451775D01*
X149970803Y-84289032D01*
X149963897Y-84145502D01*
X149954103Y-84031665D01*
X149949709Y-83998904D01*
X149906759Y-83773435D01*
X149849573Y-83553441D01*
X149782204Y-83353097D01*
X149729547Y-83228722D01*
X149595860Y-82995700D01*
X149424464Y-82778776D01*
X149220090Y-82581797D01*
X148987469Y-82408607D01*
X148731333Y-82263051D01*
X148456412Y-82148974D01*
X148364785Y-82119609D01*
X148171681Y-82076690D01*
X147949052Y-82051809D01*
X147707510Y-82044566D01*
X147457671Y-82054562D01*
X147210152Y-82081396D01*
X146975566Y-82124670D01*
X146778227Y-82179347D01*
X146527066Y-82282811D01*
X146289056Y-82419081D01*
X146071978Y-82582451D01*
X145883612Y-82767212D01*
X145758070Y-82927686D01*
X145691645Y-83035436D01*
X145619690Y-83169189D01*
X145549671Y-83313517D01*
X145489052Y-83452988D01*
X145445299Y-83572172D01*
X145443484Y-83577980D01*
X145401233Y-83741800D01*
X145366973Y-83929078D01*
X145340902Y-84132266D01*
X145323218Y-84343817D01*
X145314121Y-84556182D01*
X145313808Y-84761813D01*
X145200105Y-84761813D01*
X145199040Y-84507296D01*
X145198965Y-84396469D01*
X145199798Y-84060669D01*
X145202569Y-83765720D01*
X145207729Y-83508325D01*
X145215727Y-83285186D01*
X145227014Y-83093005D01*
X145242038Y-82928484D01*
X145261252Y-82788327D01*
X145285103Y-82669234D01*
X145314043Y-82567910D01*
X145348521Y-82481056D01*
X145388987Y-82405374D01*
X145435892Y-82337566D01*
X145488346Y-82275786D01*
X145554483Y-82210369D01*
X145625364Y-82154946D01*
X145705299Y-82108547D01*
X145798602Y-82070204D01*
X145909583Y-82038947D01*
X146042555Y-82013807D01*
X146201829Y-81993815D01*
X146391717Y-81978002D01*
X146616532Y-81965398D01*
X146880584Y-81955035D01*
X146921331Y-81953695D01*
X147120768Y-81948653D01*
X147337536Y-81945633D01*
X147565950Y-81944523D01*
X147800321Y-81945206D01*
D13*
X104140000Y-132080000D03*
X106680000Y-132080000D03*
X101600000Y-132080000D03*
X96520000Y-132080000D03*
X99060000Y-132080000D03*
D14*
X58420000Y-121920000D03*
D15*
X60960000Y-121920000D03*
X63500000Y-121920000D03*
X66040000Y-121920000D03*
D13*
X40640000Y-124460000D03*
X43180000Y-124460000D03*
X48260000Y-124460000D03*
X45720000Y-124460000D03*
X38100000Y-124460000D03*
X50800000Y-124460000D03*
X38100000Y-129540000D03*
X38100000Y-127000000D03*
X40640000Y-127000000D03*
X40640000Y-129540000D03*
X40640000Y-132080000D03*
X38100000Y-132080000D03*
X109220000Y-134620000D03*
X109220000Y-137160000D03*
X109220000Y-132080000D03*
X114300000Y-137160000D03*
X111760000Y-134620000D03*
X114300000Y-134620000D03*
X114300000Y-132080000D03*
X111760000Y-137160000D03*
X111760000Y-132080000D03*
X106680000Y-129540000D03*
X104140000Y-129540000D03*
X101600000Y-129540000D03*
X96520000Y-129540000D03*
X99060000Y-129540000D03*
X109220000Y-129540000D03*
X111760000Y-129540000D03*
X114300000Y-129540000D03*
X109220000Y-127000000D03*
X111760000Y-127000000D03*
X106680000Y-127000000D03*
X106680000Y-121920000D03*
X111760000Y-121920000D03*
X106680000Y-124460000D03*
X109220000Y-124460000D03*
X111760000Y-124460000D03*
X109220000Y-121920000D03*
X114300000Y-121920000D03*
X114300000Y-127000000D03*
X114300000Y-124460000D03*
X101600000Y-124460000D03*
X104140000Y-127000000D03*
X99060000Y-124460000D03*
X96520000Y-127000000D03*
X104140000Y-124460000D03*
X99060000Y-127000000D03*
X101600000Y-127000000D03*
X96520000Y-124460000D03*
X101600000Y-121920000D03*
X104140000Y-121920000D03*
X99060000Y-121920000D03*
X96520000Y-121920000D03*
X48260000Y-127000000D03*
X48260000Y-129540000D03*
X48260000Y-132080000D03*
X45720000Y-132080000D03*
X50800000Y-127000000D03*
X50800000Y-129540000D03*
X50800000Y-132080000D03*
X43180000Y-127000000D03*
X45720000Y-129540000D03*
X45720000Y-127000000D03*
X43180000Y-132080000D03*
X43180000Y-129540000D03*
X73660000Y-66040000D03*
X83820000Y-66040000D03*
X81280000Y-66040000D03*
X88900000Y-66040000D03*
X86360000Y-66040000D03*
X88900000Y-63500000D03*
X78740000Y-66040000D03*
X93980000Y-63500000D03*
X91440000Y-66040000D03*
X91440000Y-63500000D03*
X93980000Y-66040000D03*
X96520000Y-66040000D03*
X96520000Y-63500000D03*
X101600000Y-66040000D03*
X99060000Y-66040000D03*
X101600000Y-63500000D03*
X99060000Y-63500000D03*
X106680000Y-63500000D03*
X104140000Y-66040000D03*
X104140000Y-63500000D03*
X106680000Y-66040000D03*
X119380000Y-63500000D03*
X119380000Y-66040000D03*
X121920000Y-63500000D03*
X121920000Y-66040000D03*
X124460000Y-63500000D03*
X124460000Y-66040000D03*
X124460000Y-58420000D03*
X124460000Y-60960000D03*
X121920000Y-60960000D03*
X121920000Y-58420000D03*
X116840000Y-60960000D03*
X116840000Y-58420000D03*
X119380000Y-58420000D03*
X116840000Y-63500000D03*
X116840000Y-66040000D03*
X119380000Y-60960000D03*
X109220000Y-66040000D03*
X109220000Y-63500000D03*
X114300000Y-66040000D03*
X114300000Y-63500000D03*
X111760000Y-66040000D03*
X111760000Y-63500000D03*
X111760000Y-58420000D03*
X111760000Y-60960000D03*
X114300000Y-60960000D03*
X114300000Y-58420000D03*
X109220000Y-60960000D03*
X76200000Y-66040000D03*
X261620000Y-78740000D03*
X261620000Y-81280000D03*
X266700000Y-78740000D03*
X264160000Y-81280000D03*
X266700000Y-81280000D03*
X264160000Y-78740000D03*
X259080000Y-78740000D03*
X259080000Y-81280000D03*
X254000000Y-81280000D03*
X256540000Y-81280000D03*
X254000000Y-78740000D03*
X269240000Y-81280000D03*
X271780000Y-78740000D03*
X271780000Y-81280000D03*
X269240000Y-78740000D03*
X256540000Y-78740000D03*
X276860000Y-81280000D03*
X274320000Y-81280000D03*
X274320000Y-78740000D03*
X276860000Y-78740000D03*
X228600000Y-81280000D03*
X228600000Y-78740000D03*
X231140000Y-81280000D03*
X231140000Y-78740000D03*
X226060000Y-78740000D03*
X220980000Y-78740000D03*
X226060000Y-81280000D03*
X220980000Y-81280000D03*
X223520000Y-78740000D03*
X223520000Y-81280000D03*
X200660000Y-78740000D03*
X200660000Y-81280000D03*
X198120000Y-81280000D03*
X198120000Y-78740000D03*
X193040000Y-81280000D03*
X195580000Y-78740000D03*
X193040000Y-78740000D03*
X195580000Y-81280000D03*
X203200000Y-81280000D03*
X205740000Y-78740000D03*
X203200000Y-78740000D03*
X205740000Y-81280000D03*
X180340000Y-78740000D03*
X177800000Y-81280000D03*
X180340000Y-81280000D03*
X175260000Y-81280000D03*
X175260000Y-78740000D03*
X177800000Y-78740000D03*
X190500000Y-78740000D03*
X187960000Y-78740000D03*
X187960000Y-81280000D03*
X190500000Y-81280000D03*
X182880000Y-78740000D03*
X182880000Y-81280000D03*
X185420000Y-81280000D03*
X185420000Y-78740000D03*
X208280000Y-81280000D03*
X210820000Y-81280000D03*
X213360000Y-81280000D03*
X213360000Y-78740000D03*
X210820000Y-78740000D03*
X208280000Y-78740000D03*
X218440000Y-81280000D03*
X215900000Y-78740000D03*
X215900000Y-81280000D03*
X218440000Y-78740000D03*
X243840000Y-81280000D03*
X246380000Y-81280000D03*
X246380000Y-78740000D03*
X243840000Y-78740000D03*
X251460000Y-78740000D03*
X248920000Y-81280000D03*
X251460000Y-81280000D03*
X248920000Y-78740000D03*
X233680000Y-78740000D03*
X236220000Y-81280000D03*
X233680000Y-81280000D03*
X236220000Y-78740000D03*
X238760000Y-81280000D03*
X241300000Y-81280000D03*
X238760000Y-78740000D03*
X241300000Y-78740000D03*
X261620000Y-73660000D03*
X261620000Y-76200000D03*
X266700000Y-73660000D03*
X264160000Y-76200000D03*
X266700000Y-76200000D03*
X264160000Y-73660000D03*
X259080000Y-73660000D03*
X259080000Y-76200000D03*
X254000000Y-76200000D03*
X256540000Y-76200000D03*
X254000000Y-73660000D03*
X269240000Y-76200000D03*
X271780000Y-73660000D03*
X271780000Y-76200000D03*
X269240000Y-73660000D03*
X256540000Y-73660000D03*
X276860000Y-76200000D03*
X274320000Y-76200000D03*
X274320000Y-73660000D03*
X276860000Y-73660000D03*
X228600000Y-76200000D03*
X228600000Y-73660000D03*
X231140000Y-76200000D03*
X231140000Y-73660000D03*
X226060000Y-73660000D03*
X220980000Y-73660000D03*
X226060000Y-76200000D03*
X220980000Y-76200000D03*
X223520000Y-73660000D03*
X223520000Y-76200000D03*
X200660000Y-73660000D03*
X200660000Y-76200000D03*
X198120000Y-76200000D03*
X198120000Y-73660000D03*
X193040000Y-76200000D03*
X195580000Y-73660000D03*
X193040000Y-73660000D03*
X195580000Y-76200000D03*
X203200000Y-76200000D03*
X205740000Y-73660000D03*
X203200000Y-73660000D03*
X205740000Y-76200000D03*
X180340000Y-73660000D03*
X177800000Y-76200000D03*
X180340000Y-76200000D03*
X175260000Y-76200000D03*
X175260000Y-73660000D03*
X177800000Y-73660000D03*
X190500000Y-73660000D03*
X187960000Y-73660000D03*
X187960000Y-76200000D03*
X190500000Y-76200000D03*
X182880000Y-73660000D03*
X182880000Y-76200000D03*
X185420000Y-76200000D03*
X185420000Y-73660000D03*
X208280000Y-76200000D03*
X210820000Y-76200000D03*
X213360000Y-76200000D03*
X213360000Y-73660000D03*
X210820000Y-73660000D03*
X208280000Y-73660000D03*
X218440000Y-76200000D03*
X215900000Y-73660000D03*
X215900000Y-76200000D03*
X218440000Y-73660000D03*
X243840000Y-76200000D03*
X246380000Y-76200000D03*
X246380000Y-73660000D03*
X243840000Y-73660000D03*
X251460000Y-73660000D03*
X248920000Y-76200000D03*
X251460000Y-76200000D03*
X248920000Y-73660000D03*
X233680000Y-73660000D03*
X236220000Y-76200000D03*
X233680000Y-76200000D03*
X236220000Y-73660000D03*
X238760000Y-76200000D03*
X241300000Y-76200000D03*
X238760000Y-73660000D03*
X241300000Y-73660000D03*
X231140000Y-58420000D03*
X228600000Y-60960000D03*
X228600000Y-58420000D03*
X231140000Y-60960000D03*
X218440000Y-58420000D03*
X215900000Y-60960000D03*
X218440000Y-60960000D03*
X215900000Y-58420000D03*
X223520000Y-60960000D03*
X220980000Y-58420000D03*
X223520000Y-58420000D03*
X226060000Y-60960000D03*
X220980000Y-60960000D03*
X226060000Y-58420000D03*
X203200000Y-60960000D03*
X203200000Y-58420000D03*
X205740000Y-58420000D03*
X205740000Y-60960000D03*
X208280000Y-58420000D03*
X208280000Y-60960000D03*
X213360000Y-58420000D03*
X210820000Y-58420000D03*
X210820000Y-60960000D03*
X213360000Y-60960000D03*
X264160000Y-58420000D03*
X261620000Y-58420000D03*
X264160000Y-60960000D03*
X266700000Y-60960000D03*
X266700000Y-58420000D03*
X261620000Y-60960000D03*
X256540000Y-60960000D03*
X254000000Y-60960000D03*
X259080000Y-60960000D03*
X254000000Y-58420000D03*
X256540000Y-58420000D03*
X259080000Y-58420000D03*
X251460000Y-60960000D03*
X251460000Y-58420000D03*
X246380000Y-58420000D03*
X248920000Y-58420000D03*
X248920000Y-60960000D03*
X246380000Y-60960000D03*
X236220000Y-58420000D03*
X233680000Y-60960000D03*
X233680000Y-58420000D03*
X236220000Y-60960000D03*
X276860000Y-58420000D03*
X269240000Y-58420000D03*
X274320000Y-58420000D03*
X276860000Y-60960000D03*
X271780000Y-60960000D03*
X269240000Y-60960000D03*
X271780000Y-58420000D03*
X274320000Y-60960000D03*
X241300000Y-58420000D03*
X243840000Y-58420000D03*
X241300000Y-60960000D03*
X243840000Y-60960000D03*
X238760000Y-58420000D03*
X238760000Y-60960000D03*
X198120000Y-58420000D03*
X200660000Y-58420000D03*
X198120000Y-60960000D03*
X200660000Y-60960000D03*
X185420000Y-60960000D03*
X187960000Y-60960000D03*
X190500000Y-58420000D03*
X195580000Y-58420000D03*
X193040000Y-58420000D03*
X190500000Y-60960000D03*
X195580000Y-60960000D03*
X193040000Y-60960000D03*
X187960000Y-58420000D03*
X180340000Y-58420000D03*
X182880000Y-58420000D03*
X185420000Y-58420000D03*
X182880000Y-60960000D03*
X180340000Y-60960000D03*
X177800000Y-58420000D03*
X175260000Y-60960000D03*
X177800000Y-60960000D03*
X175260000Y-58420000D03*
X172720000Y-58420000D03*
X170180000Y-60960000D03*
X170180000Y-58420000D03*
X167640000Y-58420000D03*
X167640000Y-60960000D03*
X172720000Y-60960000D03*
X129540000Y-58420000D03*
X129540000Y-60960000D03*
X127000000Y-58420000D03*
X165100000Y-60960000D03*
X165100000Y-58420000D03*
X162560000Y-60960000D03*
X160020000Y-60960000D03*
X162560000Y-58420000D03*
X160020000Y-58420000D03*
X154940000Y-58420000D03*
X157480000Y-58420000D03*
X157480000Y-60960000D03*
X154940000Y-60960000D03*
X149860000Y-60960000D03*
X147320000Y-58420000D03*
X149860000Y-58420000D03*
X147320000Y-60960000D03*
X152400000Y-58420000D03*
X144780000Y-60960000D03*
X144780000Y-58420000D03*
X152400000Y-60960000D03*
X139700000Y-58420000D03*
X142240000Y-58420000D03*
X142240000Y-60960000D03*
X139700000Y-60960000D03*
X134620000Y-60960000D03*
X132080000Y-60960000D03*
X137160000Y-58420000D03*
X132080000Y-58420000D03*
X137160000Y-60960000D03*
X134620000Y-58420000D03*
X127000000Y-60960000D03*
X231140000Y-63500000D03*
X228600000Y-66040000D03*
X228600000Y-63500000D03*
X231140000Y-66040000D03*
X218440000Y-63500000D03*
X215900000Y-66040000D03*
X218440000Y-66040000D03*
X215900000Y-63500000D03*
X223520000Y-66040000D03*
X220980000Y-63500000D03*
X223520000Y-63500000D03*
X226060000Y-66040000D03*
X220980000Y-66040000D03*
X226060000Y-63500000D03*
X203200000Y-66040000D03*
X203200000Y-63500000D03*
X205740000Y-63500000D03*
X205740000Y-66040000D03*
X208280000Y-63500000D03*
X208280000Y-66040000D03*
X213360000Y-63500000D03*
X210820000Y-63500000D03*
X210820000Y-66040000D03*
X213360000Y-66040000D03*
X264160000Y-63500000D03*
X261620000Y-63500000D03*
X264160000Y-66040000D03*
X266700000Y-66040000D03*
X266700000Y-63500000D03*
X261620000Y-66040000D03*
X256540000Y-66040000D03*
X254000000Y-66040000D03*
X259080000Y-66040000D03*
X254000000Y-63500000D03*
X256540000Y-63500000D03*
X259080000Y-63500000D03*
X251460000Y-66040000D03*
X251460000Y-63500000D03*
X246380000Y-63500000D03*
X248920000Y-63500000D03*
X248920000Y-66040000D03*
X246380000Y-66040000D03*
X236220000Y-63500000D03*
X233680000Y-66040000D03*
X233680000Y-63500000D03*
X236220000Y-66040000D03*
X276860000Y-63500000D03*
X269240000Y-63500000D03*
X274320000Y-63500000D03*
X276860000Y-66040000D03*
X271780000Y-66040000D03*
X269240000Y-66040000D03*
X271780000Y-63500000D03*
X274320000Y-66040000D03*
X241300000Y-63500000D03*
X243840000Y-63500000D03*
X241300000Y-66040000D03*
X243840000Y-66040000D03*
X238760000Y-63500000D03*
X238760000Y-66040000D03*
X198120000Y-63500000D03*
X200660000Y-63500000D03*
X198120000Y-66040000D03*
X200660000Y-66040000D03*
X185420000Y-66040000D03*
X187960000Y-66040000D03*
X190500000Y-63500000D03*
X195580000Y-63500000D03*
X193040000Y-63500000D03*
X190500000Y-66040000D03*
X195580000Y-66040000D03*
X193040000Y-66040000D03*
X187960000Y-63500000D03*
X180340000Y-63500000D03*
X182880000Y-63500000D03*
X185420000Y-63500000D03*
X182880000Y-66040000D03*
X180340000Y-66040000D03*
X177800000Y-63500000D03*
X175260000Y-66040000D03*
X177800000Y-66040000D03*
X175260000Y-63500000D03*
X172720000Y-63500000D03*
X170180000Y-66040000D03*
X170180000Y-63500000D03*
X167640000Y-63500000D03*
X167640000Y-66040000D03*
X172720000Y-66040000D03*
X129540000Y-63500000D03*
X129540000Y-66040000D03*
X127000000Y-63500000D03*
X165100000Y-66040000D03*
X165100000Y-63500000D03*
X162560000Y-66040000D03*
X160020000Y-66040000D03*
X162560000Y-63500000D03*
X160020000Y-63500000D03*
X154940000Y-63500000D03*
X157480000Y-63500000D03*
X157480000Y-66040000D03*
X154940000Y-66040000D03*
X149860000Y-66040000D03*
X147320000Y-63500000D03*
X149860000Y-63500000D03*
X147320000Y-66040000D03*
X152400000Y-63500000D03*
X144780000Y-66040000D03*
X144780000Y-63500000D03*
X152400000Y-66040000D03*
X139700000Y-63500000D03*
X142240000Y-63500000D03*
X142240000Y-66040000D03*
X139700000Y-66040000D03*
X134620000Y-66040000D03*
X132080000Y-66040000D03*
X137160000Y-63500000D03*
X132080000Y-63500000D03*
X137160000Y-66040000D03*
X134620000Y-63500000D03*
X127000000Y-66040000D03*
X276860000Y-68580000D03*
X271780000Y-68580000D03*
X264160000Y-68580000D03*
X266700000Y-68580000D03*
X269240000Y-68580000D03*
X274320000Y-68580000D03*
X276860000Y-71120000D03*
X271780000Y-71120000D03*
X274320000Y-71120000D03*
X269240000Y-71120000D03*
X266700000Y-71120000D03*
X264160000Y-71120000D03*
X261620000Y-68580000D03*
X256540000Y-68580000D03*
X248920000Y-68580000D03*
X251460000Y-68580000D03*
X254000000Y-68580000D03*
X259080000Y-68580000D03*
X261620000Y-71120000D03*
X256540000Y-71120000D03*
X259080000Y-71120000D03*
X254000000Y-71120000D03*
X251460000Y-71120000D03*
X248920000Y-71120000D03*
X246380000Y-68580000D03*
X241300000Y-68580000D03*
X233680000Y-68580000D03*
X236220000Y-68580000D03*
X238760000Y-68580000D03*
X243840000Y-68580000D03*
X246380000Y-71120000D03*
X241300000Y-71120000D03*
X243840000Y-71120000D03*
X238760000Y-71120000D03*
X236220000Y-71120000D03*
X233680000Y-71120000D03*
X231140000Y-68580000D03*
X226060000Y-68580000D03*
X218440000Y-68580000D03*
X220980000Y-68580000D03*
X223520000Y-68580000D03*
X228600000Y-68580000D03*
X231140000Y-71120000D03*
X226060000Y-71120000D03*
X228600000Y-71120000D03*
X223520000Y-71120000D03*
X220980000Y-71120000D03*
X218440000Y-71120000D03*
X215900000Y-68580000D03*
X210820000Y-68580000D03*
X203200000Y-68580000D03*
X205740000Y-68580000D03*
X208280000Y-68580000D03*
X213360000Y-68580000D03*
X215900000Y-71120000D03*
X210820000Y-71120000D03*
X213360000Y-71120000D03*
X208280000Y-71120000D03*
X205740000Y-71120000D03*
X203200000Y-71120000D03*
X200660000Y-68580000D03*
X195580000Y-68580000D03*
X187960000Y-68580000D03*
X190500000Y-68580000D03*
X193040000Y-68580000D03*
X198120000Y-68580000D03*
X200660000Y-71120000D03*
X195580000Y-71120000D03*
X198120000Y-71120000D03*
X193040000Y-71120000D03*
X190500000Y-71120000D03*
X187960000Y-71120000D03*
X185420000Y-68580000D03*
X180340000Y-68580000D03*
X172720000Y-68580000D03*
X175260000Y-68580000D03*
X177800000Y-68580000D03*
X182880000Y-68580000D03*
X185420000Y-71120000D03*
X180340000Y-71120000D03*
X182880000Y-71120000D03*
X177800000Y-71120000D03*
X175260000Y-71120000D03*
X172720000Y-71120000D03*
X170180000Y-68580000D03*
X165100000Y-68580000D03*
X157480000Y-68580000D03*
X160020000Y-68580000D03*
X162560000Y-68580000D03*
X167640000Y-68580000D03*
X170180000Y-71120000D03*
X165100000Y-71120000D03*
X167640000Y-71120000D03*
X162560000Y-71120000D03*
X160020000Y-71120000D03*
X157480000Y-71120000D03*
X154940000Y-68580000D03*
X149860000Y-68580000D03*
X142240000Y-68580000D03*
X144780000Y-68580000D03*
X147320000Y-68580000D03*
X152400000Y-68580000D03*
X154940000Y-71120000D03*
X149860000Y-71120000D03*
X152400000Y-71120000D03*
X147320000Y-71120000D03*
X144780000Y-71120000D03*
X142240000Y-71120000D03*
X139700000Y-68580000D03*
X134620000Y-68580000D03*
X127000000Y-68580000D03*
X129540000Y-68580000D03*
X132080000Y-68580000D03*
X137160000Y-68580000D03*
X139700000Y-71120000D03*
X134620000Y-71120000D03*
X137160000Y-71120000D03*
X132080000Y-71120000D03*
X129540000Y-71120000D03*
X127000000Y-71120000D03*
X124460000Y-68580000D03*
X124460000Y-71120000D03*
X121920000Y-68580000D03*
X119380000Y-68580000D03*
X116840000Y-71120000D03*
X111760000Y-73660000D03*
X114300000Y-73660000D03*
X116840000Y-73660000D03*
X111760000Y-78740000D03*
X111760000Y-81280000D03*
X111760000Y-83820000D03*
X114300000Y-83820000D03*
X111760000Y-76200000D03*
X114300000Y-76200000D03*
X114300000Y-78740000D03*
X116840000Y-78740000D03*
X116840000Y-83820000D03*
X114300000Y-81280000D03*
X116840000Y-81280000D03*
X119380000Y-81280000D03*
X121920000Y-81280000D03*
X121920000Y-83820000D03*
X119380000Y-83820000D03*
X111760000Y-68580000D03*
X114300000Y-71120000D03*
X114300000Y-68580000D03*
X116840000Y-68580000D03*
X111760000Y-71120000D03*
X119380000Y-71120000D03*
X119380000Y-73660000D03*
X121920000Y-73660000D03*
X121920000Y-71120000D03*
X116840000Y-76200000D03*
X119380000Y-76200000D03*
X121920000Y-76200000D03*
X119380000Y-78740000D03*
X121920000Y-78740000D03*
X66040000Y-76200000D03*
X66040000Y-78740000D03*
X66040000Y-71120000D03*
X66040000Y-73660000D03*
X66040000Y-81280000D03*
X66040000Y-83820000D03*
X73660000Y-73660000D03*
X73660000Y-76200000D03*
X73660000Y-78740000D03*
X73660000Y-83820000D03*
X73660000Y-81280000D03*
X68580000Y-71120000D03*
X71120000Y-71120000D03*
X68580000Y-73660000D03*
X71120000Y-73660000D03*
X68580000Y-76200000D03*
X71120000Y-76200000D03*
X68580000Y-78740000D03*
X71120000Y-83820000D03*
X68580000Y-81280000D03*
X71120000Y-81280000D03*
X68580000Y-83820000D03*
X71120000Y-78740000D03*
X68580000Y-68580000D03*
X71120000Y-68580000D03*
X73660000Y-68580000D03*
X73660000Y-71120000D03*
X109220000Y-83820000D03*
X106680000Y-83820000D03*
X104140000Y-83820000D03*
X101600000Y-83820000D03*
X99060000Y-83820000D03*
X96520000Y-83820000D03*
X93980000Y-83820000D03*
X91440000Y-83820000D03*
X88900000Y-83820000D03*
X86360000Y-83820000D03*
X83820000Y-83820000D03*
X81280000Y-83820000D03*
X78740000Y-83820000D03*
X76200000Y-83820000D03*
X109220000Y-81280000D03*
X106680000Y-81280000D03*
X104140000Y-81280000D03*
X101600000Y-81280000D03*
X99060000Y-81280000D03*
X96520000Y-81280000D03*
X93980000Y-81280000D03*
X91440000Y-81280000D03*
X88900000Y-81280000D03*
X86360000Y-81280000D03*
X83820000Y-81280000D03*
X81280000Y-81280000D03*
X78740000Y-81280000D03*
X76200000Y-81280000D03*
X109220000Y-78740000D03*
X106680000Y-78740000D03*
X104140000Y-78740000D03*
X101600000Y-78740000D03*
X99060000Y-78740000D03*
X96520000Y-78740000D03*
X93980000Y-78740000D03*
X91440000Y-78740000D03*
X88900000Y-78740000D03*
X86360000Y-78740000D03*
X83820000Y-78740000D03*
X81280000Y-78740000D03*
X78740000Y-78740000D03*
X76200000Y-78740000D03*
X109220000Y-76200000D03*
X106680000Y-76200000D03*
X104140000Y-76200000D03*
X101600000Y-76200000D03*
X99060000Y-76200000D03*
X96520000Y-76200000D03*
X93980000Y-76200000D03*
X91440000Y-76200000D03*
X88900000Y-76200000D03*
X86360000Y-76200000D03*
X83820000Y-76200000D03*
X81280000Y-76200000D03*
X78740000Y-76200000D03*
X76200000Y-76200000D03*
X109220000Y-73660000D03*
X106680000Y-73660000D03*
X104140000Y-73660000D03*
X101600000Y-73660000D03*
X99060000Y-73660000D03*
X96520000Y-73660000D03*
X93980000Y-73660000D03*
X91440000Y-73660000D03*
X88900000Y-73660000D03*
X86360000Y-73660000D03*
X83820000Y-73660000D03*
X81280000Y-73660000D03*
X78740000Y-73660000D03*
X76200000Y-73660000D03*
X109220000Y-71120000D03*
X106680000Y-71120000D03*
X104140000Y-71120000D03*
X101600000Y-71120000D03*
X99060000Y-71120000D03*
X96520000Y-71120000D03*
X93980000Y-71120000D03*
X91440000Y-71120000D03*
X88900000Y-71120000D03*
X86360000Y-71120000D03*
X83820000Y-71120000D03*
X81280000Y-71120000D03*
X78740000Y-71120000D03*
X76200000Y-71120000D03*
X109220000Y-68580000D03*
X106680000Y-68580000D03*
X104140000Y-68580000D03*
X101600000Y-68580000D03*
X99060000Y-68580000D03*
X96520000Y-68580000D03*
X93980000Y-68580000D03*
X91440000Y-68580000D03*
X88900000Y-68580000D03*
X86360000Y-68580000D03*
X83820000Y-68580000D03*
X81280000Y-68580000D03*
X78740000Y-68580000D03*
D16*
X43180000Y-137680000D03*
X43180000Y-139180000D03*
X248920000Y-133870000D03*
X248920000Y-135370000D03*
D14*
X152400000Y-144780000D03*
D15*
X154940000Y-144780000D03*
X157480000Y-144780000D03*
X160020000Y-144780000D03*
X162560000Y-144780000D03*
X165100000Y-144780000D03*
X167640000Y-144780000D03*
X170180000Y-144780000D03*
D16*
X265430000Y-113550000D03*
X265430000Y-115050000D03*
D14*
X232410000Y-101600000D03*
D15*
X234950000Y-101600000D03*
X237490000Y-101600000D03*
X240030000Y-101600000D03*
X242570000Y-101600000D03*
X245110000Y-101600000D03*
X247650000Y-101600000D03*
X250190000Y-101600000D03*
D14*
X232410000Y-104140000D03*
D15*
X234950000Y-104140000D03*
X237490000Y-104140000D03*
X240030000Y-104140000D03*
X242570000Y-104140000D03*
X245110000Y-104140000D03*
X247650000Y-104140000D03*
X250190000Y-104140000D03*
D14*
X186690000Y-101600000D03*
D15*
X189230000Y-101600000D03*
X191770000Y-101600000D03*
X194310000Y-101600000D03*
X196850000Y-101600000D03*
X199390000Y-101600000D03*
X201930000Y-101600000D03*
X204470000Y-101600000D03*
D14*
X255270000Y-127000000D03*
D15*
X257810000Y-127000000D03*
X260350000Y-127000000D03*
X262890000Y-127000000D03*
X265430000Y-127000000D03*
X267970000Y-127000000D03*
X270510000Y-127000000D03*
X273050000Y-127000000D03*
D14*
X255270000Y-101600000D03*
D15*
X257810000Y-101600000D03*
X260350000Y-101600000D03*
X262890000Y-101600000D03*
X265430000Y-101600000D03*
X267970000Y-101600000D03*
X270510000Y-101600000D03*
X273050000Y-101600000D03*
D17*
X46990000Y-34290000D03*
D18*
X46990000Y-36830000D03*
D19*
X44450000Y-97270000D03*
X44450000Y-95770000D03*
X44450000Y-92190000D03*
X44450000Y-90690000D03*
X44450000Y-70600000D03*
X44450000Y-69100000D03*
X44450000Y-66560000D03*
X44450000Y-65060000D03*
D20*
X152400000Y-103276400D03*
X152400000Y-102463600D03*
D19*
X44450000Y-83300000D03*
X44450000Y-81800000D03*
X44450000Y-78220000D03*
X44450000Y-76720000D03*
X165735000Y-91325000D03*
X165735000Y-92825000D03*
D21*
X31750000Y-95440000D03*
X31750000Y-92520000D03*
D22*
X50990000Y-96520000D03*
X48070000Y-96520000D03*
X50990000Y-91440000D03*
X48070000Y-91440000D03*
D21*
X31750000Y-68770000D03*
X31750000Y-65850000D03*
D22*
X50990000Y-69850000D03*
X48070000Y-69850000D03*
X50990000Y-64770000D03*
X48070000Y-64770000D03*
D19*
X119380000Y-93497400D03*
X119380000Y-94997400D03*
X121285000Y-93497400D03*
X121285000Y-94997400D03*
D23*
X41681400Y-90881200D03*
X39370000Y-90881200D03*
X37058600Y-90881200D03*
D24*
X39370000Y-97078800D03*
D25*
X71440040Y-37899340D03*
X78740000Y-37899340D03*
X86039960Y-37899340D03*
X73738740Y-40401240D03*
X83741260Y-40401240D03*
X73738740Y-28199080D03*
X83741260Y-28199080D03*
X91760040Y-37899340D03*
X99060000Y-37899340D03*
X106359960Y-37899340D03*
X94058740Y-40401240D03*
X104061260Y-40401240D03*
X94058740Y-28199080D03*
X104061260Y-28199080D03*
D26*
X135240000Y-42350000D03*
X135240000Y-36000000D03*
X135240000Y-29650000D03*
X146440000Y-42350000D03*
X146440000Y-36000000D03*
X146440000Y-29650000D03*
D27*
X137140000Y-39200000D03*
D28*
X135010000Y-32850000D03*
X146440000Y-32850000D03*
D26*
X155560000Y-42350000D03*
X155560000Y-36000000D03*
X155560000Y-29650000D03*
X166760000Y-42350000D03*
X166760000Y-36000000D03*
X166760000Y-29650000D03*
D27*
X157460000Y-39200000D03*
D28*
X155330000Y-32850000D03*
X166760000Y-32850000D03*
D26*
X175880000Y-42350000D03*
X175880000Y-36000000D03*
X175880000Y-29650000D03*
X187080000Y-42350000D03*
X187080000Y-36000000D03*
X187080000Y-29650000D03*
D27*
X177780000Y-39200000D03*
D28*
X175650000Y-32850000D03*
X187080000Y-32850000D03*
D26*
X196200000Y-42350000D03*
X196200000Y-36000000D03*
X196200000Y-29650000D03*
X207400000Y-42350000D03*
X207400000Y-36000000D03*
X207400000Y-29650000D03*
D27*
X198100000Y-39200000D03*
D28*
X195970000Y-32850000D03*
X207400000Y-32850000D03*
D26*
X216520000Y-42350000D03*
X216520000Y-36000000D03*
X216520000Y-29650000D03*
X227720000Y-42350000D03*
X227720000Y-36000000D03*
X227720000Y-29650000D03*
D27*
X218420000Y-39200000D03*
D28*
X216290000Y-32850000D03*
X227720000Y-32850000D03*
D26*
X236840000Y-42350000D03*
X236840000Y-36000000D03*
X236840000Y-29650000D03*
X248040000Y-42350000D03*
X248040000Y-36000000D03*
X248040000Y-29650000D03*
D27*
X238740000Y-39200000D03*
D28*
X236610000Y-32850000D03*
X248040000Y-32850000D03*
D29*
X55995000Y-46355000D03*
X54495000Y-46355000D03*
D20*
X149225000Y-91897200D03*
X149225000Y-92710000D03*
X149225000Y-93522800D03*
D16*
X58420000Y-137680000D03*
X58420000Y-139180000D03*
X190601600Y-94247400D03*
X190601600Y-92747400D03*
X213461600Y-94679200D03*
X213461600Y-93179200D03*
X222300800Y-89547000D03*
X222300800Y-91047000D03*
X242570000Y-89674000D03*
X242570000Y-91174000D03*
X265430000Y-90690000D03*
X265430000Y-92190000D03*
X190474600Y-117348000D03*
X190474600Y-115848000D03*
X213334600Y-117297200D03*
X213334600Y-115797200D03*
X222250000Y-113550000D03*
X222250000Y-115050000D03*
X242570000Y-113550000D03*
X242570000Y-115050000D03*
X134620000Y-111238600D03*
X134620000Y-112738600D03*
X157480000Y-113550000D03*
X157480000Y-115050000D03*
X134620000Y-133870000D03*
X134620000Y-135370000D03*
X157480000Y-133870000D03*
X157480000Y-135370000D03*
X180340000Y-135370000D03*
X180340000Y-133870000D03*
D14*
X38100000Y-147320000D03*
D15*
X40640000Y-147320000D03*
X43180000Y-147320000D03*
X45720000Y-147320000D03*
X48260000Y-147320000D03*
X50800000Y-147320000D03*
X53340000Y-147320000D03*
X55880000Y-147320000D03*
D14*
X58420000Y-147320000D03*
D15*
X60960000Y-147320000D03*
X63500000Y-147320000D03*
X66040000Y-147320000D03*
X68580000Y-147320000D03*
X71120000Y-147320000D03*
X73660000Y-147320000D03*
X76200000Y-147320000D03*
D14*
X209550000Y-101600000D03*
D15*
X212090000Y-101600000D03*
X214630000Y-101600000D03*
X217170000Y-101600000D03*
X219710000Y-101600000D03*
X222250000Y-101600000D03*
X224790000Y-101600000D03*
X227330000Y-101600000D03*
D14*
X186690000Y-124460000D03*
D15*
X189230000Y-124460000D03*
X191770000Y-124460000D03*
X194310000Y-124460000D03*
X196850000Y-124460000D03*
X199390000Y-124460000D03*
X201930000Y-124460000D03*
X204470000Y-124460000D03*
D14*
X209550000Y-124460000D03*
D15*
X212090000Y-124460000D03*
X214630000Y-124460000D03*
X217170000Y-124460000D03*
X219710000Y-124460000D03*
X222250000Y-124460000D03*
X224790000Y-124460000D03*
X227330000Y-124460000D03*
D14*
X232410000Y-124460000D03*
D15*
X234950000Y-124460000D03*
X237490000Y-124460000D03*
X240030000Y-124460000D03*
X242570000Y-124460000D03*
X245110000Y-124460000D03*
X247650000Y-124460000D03*
X250190000Y-124460000D03*
D14*
X255270000Y-124460000D03*
D15*
X257810000Y-124460000D03*
X260350000Y-124460000D03*
X262890000Y-124460000D03*
X265430000Y-124460000D03*
X267970000Y-124460000D03*
X270510000Y-124460000D03*
X273050000Y-124460000D03*
D30*
X69215000Y-141605000D03*
X67945000Y-141605000D03*
X66675000Y-141605000D03*
X65405000Y-141605000D03*
X64135000Y-141605000D03*
X62865000Y-141605000D03*
X61595000Y-141605000D03*
X60325000Y-141605000D03*
X65405000Y-135255000D03*
X61595000Y-135255000D03*
X62865000Y-135255000D03*
X60325000Y-135255000D03*
X64135000Y-135255000D03*
X67945000Y-135255000D03*
X66675000Y-135255000D03*
X69215000Y-135255000D03*
X179705000Y-88265000D03*
X180975000Y-88265000D03*
X182245000Y-88265000D03*
X183515000Y-88265000D03*
X184785000Y-88265000D03*
X186055000Y-88265000D03*
X187325000Y-88265000D03*
X188595000Y-88265000D03*
X183515000Y-94615000D03*
X187325000Y-94615000D03*
X186055000Y-94615000D03*
X188595000Y-94615000D03*
X184785000Y-94615000D03*
X180975000Y-94615000D03*
X182245000Y-94615000D03*
X179705000Y-94615000D03*
X202565000Y-87960200D03*
X203835000Y-87960200D03*
X205105000Y-87960200D03*
X206375000Y-87960200D03*
X207645000Y-87960200D03*
X208915000Y-87960200D03*
X210185000Y-87960200D03*
X211455000Y-87960200D03*
X206375000Y-94310200D03*
X210185000Y-94310200D03*
X208915000Y-94310200D03*
X211455000Y-94310200D03*
X207645000Y-94310200D03*
X203835000Y-94310200D03*
X205105000Y-94310200D03*
X202565000Y-94310200D03*
X253365000Y-94615000D03*
X252095000Y-94615000D03*
X250825000Y-94615000D03*
X249555000Y-94615000D03*
X248285000Y-94615000D03*
X247015000Y-94615000D03*
X245745000Y-94615000D03*
X244475000Y-94615000D03*
X249555000Y-88265000D03*
X245745000Y-88265000D03*
X247015000Y-88265000D03*
X244475000Y-88265000D03*
X248285000Y-88265000D03*
X252095000Y-88265000D03*
X250825000Y-88265000D03*
X253365000Y-88265000D03*
X276225000Y-94615000D03*
X274955000Y-94615000D03*
X273685000Y-94615000D03*
X272415000Y-94615000D03*
X271145000Y-94615000D03*
X269875000Y-94615000D03*
X268605000Y-94615000D03*
X267335000Y-94615000D03*
X272415000Y-88265000D03*
X268605000Y-88265000D03*
X269875000Y-88265000D03*
X267335000Y-88265000D03*
X271145000Y-88265000D03*
X274955000Y-88265000D03*
X273685000Y-88265000D03*
X276225000Y-88265000D03*
X179705000Y-111125000D03*
X180975000Y-111125000D03*
X182245000Y-111125000D03*
X183515000Y-111125000D03*
X184785000Y-111125000D03*
X186055000Y-111125000D03*
X187325000Y-111125000D03*
X188595000Y-111125000D03*
X183515000Y-117475000D03*
X187325000Y-117475000D03*
X186055000Y-117475000D03*
X188595000Y-117475000D03*
X184785000Y-117475000D03*
X180975000Y-117475000D03*
X182245000Y-117475000D03*
X179705000Y-117475000D03*
X202565000Y-111125000D03*
X203835000Y-111125000D03*
X205105000Y-111125000D03*
X206375000Y-111125000D03*
X207645000Y-111125000D03*
X208915000Y-111125000D03*
X210185000Y-111125000D03*
X211455000Y-111125000D03*
X206375000Y-117475000D03*
X210185000Y-117475000D03*
X208915000Y-117475000D03*
X211455000Y-117475000D03*
X207645000Y-117475000D03*
X203835000Y-117475000D03*
X205105000Y-117475000D03*
X202565000Y-117475000D03*
X253365000Y-117475000D03*
X252095000Y-117475000D03*
X250825000Y-117475000D03*
X249555000Y-117475000D03*
X248285000Y-117475000D03*
X247015000Y-117475000D03*
X245745000Y-117475000D03*
X244475000Y-117475000D03*
X249555000Y-111125000D03*
X245745000Y-111125000D03*
X247015000Y-111125000D03*
X244475000Y-111125000D03*
X248285000Y-111125000D03*
X252095000Y-111125000D03*
X250825000Y-111125000D03*
X253365000Y-111125000D03*
X276225000Y-117475000D03*
X274955000Y-117475000D03*
X273685000Y-117475000D03*
X272415000Y-117475000D03*
X271145000Y-117475000D03*
X269875000Y-117475000D03*
X268605000Y-117475000D03*
X267335000Y-117475000D03*
X272415000Y-111125000D03*
X268605000Y-111125000D03*
X269875000Y-111125000D03*
X267335000Y-111125000D03*
X271145000Y-111125000D03*
X274955000Y-111125000D03*
X273685000Y-111125000D03*
X276225000Y-111125000D03*
X233045000Y-94615000D03*
X231775000Y-94615000D03*
X230505000Y-94615000D03*
X229235000Y-94615000D03*
X227965000Y-94615000D03*
X226695000Y-94615000D03*
X225425000Y-94615000D03*
X224155000Y-94615000D03*
X229235000Y-88265000D03*
X225425000Y-88265000D03*
X226695000Y-88265000D03*
X224155000Y-88265000D03*
X227965000Y-88265000D03*
X231775000Y-88265000D03*
X230505000Y-88265000D03*
X233045000Y-88265000D03*
X233045000Y-117475000D03*
X231775000Y-117475000D03*
X230505000Y-117475000D03*
X229235000Y-117475000D03*
X227965000Y-117475000D03*
X226695000Y-117475000D03*
X225425000Y-117475000D03*
X224155000Y-117475000D03*
X229235000Y-111125000D03*
X225425000Y-111125000D03*
X226695000Y-111125000D03*
X224155000Y-111125000D03*
X227965000Y-111125000D03*
X231775000Y-111125000D03*
X230505000Y-111125000D03*
X233045000Y-111125000D03*
X145415000Y-117475000D03*
X144145000Y-117475000D03*
X142875000Y-117475000D03*
X141605000Y-117475000D03*
X140335000Y-117475000D03*
X139065000Y-117475000D03*
X137795000Y-117475000D03*
X136525000Y-117475000D03*
X141605000Y-111125000D03*
X137795000Y-111125000D03*
X139065000Y-111125000D03*
X136525000Y-111125000D03*
X140335000Y-111125000D03*
X144145000Y-111125000D03*
X142875000Y-111125000D03*
X145415000Y-111125000D03*
X168275000Y-117475000D03*
X167005000Y-117475000D03*
X165735000Y-117475000D03*
X164465000Y-117475000D03*
X163195000Y-117475000D03*
X161925000Y-117475000D03*
X160655000Y-117475000D03*
X159385000Y-117475000D03*
X164465000Y-111125000D03*
X160655000Y-111125000D03*
X161925000Y-111125000D03*
X159385000Y-111125000D03*
X163195000Y-111125000D03*
X167005000Y-111125000D03*
X165735000Y-111125000D03*
X168275000Y-111125000D03*
X145415000Y-137795000D03*
X144145000Y-137795000D03*
X142875000Y-137795000D03*
X141605000Y-137795000D03*
X140335000Y-137795000D03*
X139065000Y-137795000D03*
X137795000Y-137795000D03*
X136525000Y-137795000D03*
X141605000Y-131445000D03*
X137795000Y-131445000D03*
X139065000Y-131445000D03*
X136525000Y-131445000D03*
X140335000Y-131445000D03*
X144145000Y-131445000D03*
X142875000Y-131445000D03*
X145415000Y-131445000D03*
D16*
X203200000Y-133870000D03*
X203200000Y-135370000D03*
X226060000Y-134035800D03*
X226060000Y-135535800D03*
D30*
X168275000Y-137795000D03*
X167005000Y-137795000D03*
X165735000Y-137795000D03*
X164465000Y-137795000D03*
X163195000Y-137795000D03*
X161925000Y-137795000D03*
X160655000Y-137795000D03*
X159385000Y-137795000D03*
X164465000Y-131445000D03*
X160655000Y-131445000D03*
X161925000Y-131445000D03*
X159385000Y-131445000D03*
X163195000Y-131445000D03*
X167005000Y-131445000D03*
X165735000Y-131445000D03*
X168275000Y-131445000D03*
X191135000Y-137795000D03*
X189865000Y-137795000D03*
X188595000Y-137795000D03*
X187325000Y-137795000D03*
X186055000Y-137795000D03*
X184785000Y-137795000D03*
X183515000Y-137795000D03*
X182245000Y-137795000D03*
X187325000Y-131445000D03*
X183515000Y-131445000D03*
X184785000Y-131445000D03*
X182245000Y-131445000D03*
X186055000Y-131445000D03*
X189865000Y-131445000D03*
X188595000Y-131445000D03*
X191135000Y-131445000D03*
D29*
X76315000Y-46355000D03*
X74815000Y-46355000D03*
X62345000Y-46355000D03*
X60845000Y-46355000D03*
X82665000Y-46355000D03*
X81165000Y-46355000D03*
X92595000Y-46355000D03*
X94095000Y-46355000D03*
X101485000Y-56515000D03*
X102985000Y-56515000D03*
D25*
X51120040Y-37899340D03*
X58420000Y-37899340D03*
X65719960Y-37899340D03*
X53418740Y-40401240D03*
X63421260Y-40401240D03*
X53418740Y-28199080D03*
X63421260Y-28199080D03*
D26*
X257160000Y-42350000D03*
X257160000Y-36000000D03*
X257160000Y-29650000D03*
X268360000Y-42350000D03*
X268360000Y-36000000D03*
X268360000Y-29650000D03*
D27*
X259060000Y-39200000D03*
D28*
X256930000Y-32850000D03*
X268360000Y-32850000D03*
D14*
X220980000Y-144780000D03*
D15*
X223520000Y-144780000D03*
X226060000Y-144780000D03*
X228600000Y-144780000D03*
X231140000Y-144780000D03*
X233680000Y-144780000D03*
X236220000Y-144780000D03*
X238760000Y-144780000D03*
D14*
X243840000Y-144780000D03*
D15*
X246380000Y-144780000D03*
X248920000Y-144780000D03*
X251460000Y-144780000D03*
X254000000Y-144780000D03*
X256540000Y-144780000D03*
X259080000Y-144780000D03*
X261620000Y-144780000D03*
D21*
X31750000Y-82105000D03*
X31750000Y-79185000D03*
D22*
X50990000Y-82550000D03*
X48070000Y-82550000D03*
X50990000Y-77470000D03*
X48070000Y-77470000D03*
D21*
X93345000Y-49340000D03*
X93345000Y-52260000D03*
D26*
X114920000Y-42350000D03*
X114920000Y-36000000D03*
X114920000Y-29650000D03*
X126120000Y-42350000D03*
X126120000Y-36000000D03*
X126120000Y-29650000D03*
D27*
X116820000Y-39200000D03*
D28*
X114690000Y-32850000D03*
X126120000Y-32850000D03*
D20*
X55880000Y-89712800D03*
X55880000Y-88900000D03*
X55880000Y-88087200D03*
X149860000Y-103276400D03*
X149860000Y-102463600D03*
D14*
X167640000Y-96520000D03*
D15*
X165100000Y-96520000D03*
X162560000Y-96520000D03*
D14*
X114300000Y-53975000D03*
D15*
X116840000Y-53975000D03*
X119380000Y-53975000D03*
X121920000Y-53975000D03*
X124460000Y-53975000D03*
X127000000Y-53975000D03*
D14*
X134620000Y-53975000D03*
D15*
X137160000Y-53975000D03*
X139700000Y-53975000D03*
X142240000Y-53975000D03*
X144780000Y-53975000D03*
X147320000Y-53975000D03*
D14*
X154940000Y-53975000D03*
D15*
X157480000Y-53975000D03*
X160020000Y-53975000D03*
X162560000Y-53975000D03*
X165100000Y-53975000D03*
X167640000Y-53975000D03*
D14*
X175260000Y-53975000D03*
D15*
X177800000Y-53975000D03*
X180340000Y-53975000D03*
X182880000Y-53975000D03*
X185420000Y-53975000D03*
X187960000Y-53975000D03*
D14*
X195580000Y-53975000D03*
D15*
X198120000Y-53975000D03*
X200660000Y-53975000D03*
X203200000Y-53975000D03*
X205740000Y-53975000D03*
X208280000Y-53975000D03*
D14*
X215900000Y-53975000D03*
D15*
X218440000Y-53975000D03*
X220980000Y-53975000D03*
X223520000Y-53975000D03*
X226060000Y-53975000D03*
X228600000Y-53975000D03*
D14*
X236220000Y-53975000D03*
D15*
X238760000Y-53975000D03*
X241300000Y-53975000D03*
X243840000Y-53975000D03*
X246380000Y-53975000D03*
X248920000Y-53975000D03*
D14*
X256540000Y-53975000D03*
D15*
X259080000Y-53975000D03*
X261620000Y-53975000D03*
X264160000Y-53975000D03*
X266700000Y-53975000D03*
X269240000Y-53975000D03*
D14*
X129540000Y-124460000D03*
D15*
X132080000Y-124460000D03*
X134620000Y-124460000D03*
X137160000Y-124460000D03*
X139700000Y-124460000D03*
X142240000Y-124460000D03*
X144780000Y-124460000D03*
X147320000Y-124460000D03*
D14*
X152400000Y-124460000D03*
D15*
X154940000Y-124460000D03*
X157480000Y-124460000D03*
X160020000Y-124460000D03*
X162560000Y-124460000D03*
X165100000Y-124460000D03*
X167640000Y-124460000D03*
X170180000Y-124460000D03*
D14*
X129540000Y-144780000D03*
D15*
X132080000Y-144780000D03*
X134620000Y-144780000D03*
X137160000Y-144780000D03*
X139700000Y-144780000D03*
X142240000Y-144780000D03*
X144780000Y-144780000D03*
X147320000Y-144780000D03*
D14*
X175260000Y-144780000D03*
D15*
X177800000Y-144780000D03*
X180340000Y-144780000D03*
X182880000Y-144780000D03*
X185420000Y-144780000D03*
X187960000Y-144780000D03*
X190500000Y-144780000D03*
X193040000Y-144780000D03*
D14*
X198120000Y-144780000D03*
D15*
X200660000Y-144780000D03*
X203200000Y-144780000D03*
X205740000Y-144780000D03*
X208280000Y-144780000D03*
X210820000Y-144780000D03*
X213360000Y-144780000D03*
X215900000Y-144780000D03*
D23*
X41681400Y-64211200D03*
X39370000Y-64211200D03*
X37058600Y-64211200D03*
D24*
X39370000Y-70408800D03*
D23*
X41681400Y-77546200D03*
X39370000Y-77546200D03*
X37058600Y-77546200D03*
D24*
X39370000Y-83743800D03*
D31*
X159245000Y-95095000D03*
X159245000Y-94595000D03*
X159245000Y-94095000D03*
X159245000Y-93595000D03*
X159245000Y-93095000D03*
X159245000Y-92595000D03*
X159245000Y-92095000D03*
X159245000Y-91595000D03*
D32*
X158595000Y-90945000D03*
X158095000Y-90945000D03*
X157595000Y-90945000D03*
X157095000Y-90945000D03*
X156595000Y-90945000D03*
X156095000Y-90945000D03*
X155595000Y-90945000D03*
X155095000Y-90945000D03*
D31*
X154445000Y-91595000D03*
X154445000Y-92095000D03*
X154445000Y-92595000D03*
X154445000Y-93095000D03*
X154445000Y-93595000D03*
X154445000Y-94095000D03*
X154445000Y-94595000D03*
X154445000Y-95095000D03*
D32*
X155095000Y-95745000D03*
X155595000Y-95745000D03*
X156095000Y-95745000D03*
X156595000Y-95745000D03*
X157095000Y-95745000D03*
X157595000Y-95745000D03*
X158095000Y-95745000D03*
X158595000Y-95745000D03*
D33*
X155982500Y-92482500D03*
X155982500Y-94207500D03*
X157707500Y-92482500D03*
X157707500Y-94207500D03*
D34*
X101632000Y-145301000D03*
X100532000Y-144901000D03*
X99432000Y-145301000D03*
X98332000Y-145501000D03*
X97232000Y-145301000D03*
X96132000Y-145501000D03*
X95032000Y-145301000D03*
X93932000Y-145301000D03*
D35*
X93142000Y-148151000D03*
D36*
X94742000Y-135001000D03*
X100442000Y-135001000D03*
D35*
X106292000Y-149151000D03*
D30*
X53975000Y-141605000D03*
X52705000Y-141605000D03*
X51435000Y-141605000D03*
X50165000Y-141605000D03*
X48895000Y-141605000D03*
X47625000Y-141605000D03*
X46355000Y-141605000D03*
X45085000Y-141605000D03*
X50165000Y-135255000D03*
X46355000Y-135255000D03*
X47625000Y-135255000D03*
X45085000Y-135255000D03*
X48895000Y-135255000D03*
X52705000Y-135255000D03*
X51435000Y-135255000D03*
X53975000Y-135255000D03*
D37*
X57470000Y-48725000D03*
X58420000Y-48725000D03*
X59370000Y-48725000D03*
X59370000Y-46525000D03*
X57470000Y-46525000D03*
X77790000Y-48725000D03*
X78740000Y-48725000D03*
X79690000Y-48725000D03*
X79690000Y-46525000D03*
X77790000Y-46525000D03*
D38*
X97655000Y-46990000D03*
X97655380Y-49530000D03*
X97655380Y-52070000D03*
X97655000Y-54610000D03*
X106815000Y-54610000D03*
X106815000Y-52070000D03*
X106815000Y-49530000D03*
X106815000Y-46990000D03*
D30*
X213995000Y-137795000D03*
X212725000Y-137795000D03*
X211455000Y-137795000D03*
X210185000Y-137795000D03*
X208915000Y-137795000D03*
X207645000Y-137795000D03*
X206375000Y-137795000D03*
X205105000Y-137795000D03*
X210185000Y-131445000D03*
X206375000Y-131445000D03*
X207645000Y-131445000D03*
X205105000Y-131445000D03*
X208915000Y-131445000D03*
X212725000Y-131445000D03*
X211455000Y-131445000D03*
X213995000Y-131445000D03*
X236855000Y-137795000D03*
X235585000Y-137795000D03*
X234315000Y-137795000D03*
X233045000Y-137795000D03*
X231775000Y-137795000D03*
X230505000Y-137795000D03*
X229235000Y-137795000D03*
X227965000Y-137795000D03*
X233045000Y-131445000D03*
X229235000Y-131445000D03*
X230505000Y-131445000D03*
X227965000Y-131445000D03*
X231775000Y-131445000D03*
X235585000Y-131445000D03*
X234315000Y-131445000D03*
X236855000Y-131445000D03*
X259715000Y-137795000D03*
X258445000Y-137795000D03*
X257175000Y-137795000D03*
X255905000Y-137795000D03*
X254635000Y-137795000D03*
X253365000Y-137795000D03*
X252095000Y-137795000D03*
X250825000Y-137795000D03*
X255905000Y-131445000D03*
X252095000Y-131445000D03*
X253365000Y-131445000D03*
X250825000Y-131445000D03*
X254635000Y-131445000D03*
X258445000Y-131445000D03*
X257175000Y-131445000D03*
X259715000Y-131445000D03*
D20*
X123825000Y-91897200D03*
X123825000Y-92710000D03*
X123825000Y-93522800D03*
X127000000Y-103276400D03*
X127000000Y-102463600D03*
X124460000Y-103276400D03*
X124460000Y-102463600D03*
D14*
X142240000Y-96520000D03*
D15*
X139700000Y-96520000D03*
X137160000Y-96520000D03*
D19*
X140335000Y-91325000D03*
X140335000Y-92825000D03*
D31*
X133845000Y-95095000D03*
X133845000Y-94595000D03*
X133845000Y-94095000D03*
X133845000Y-93595000D03*
X133845000Y-93095000D03*
X133845000Y-92595000D03*
X133845000Y-92095000D03*
X133845000Y-91595000D03*
D32*
X133195000Y-90945000D03*
X132695000Y-90945000D03*
X132195000Y-90945000D03*
X131695000Y-90945000D03*
X131195000Y-90945000D03*
X130695000Y-90945000D03*
X130195000Y-90945000D03*
X129695000Y-90945000D03*
D31*
X129045000Y-91595000D03*
X129045000Y-92095000D03*
X129045000Y-92595000D03*
X129045000Y-93095000D03*
X129045000Y-93595000D03*
X129045000Y-94095000D03*
X129045000Y-94595000D03*
X129045000Y-95095000D03*
D32*
X129695000Y-95745000D03*
X130195000Y-95745000D03*
X130695000Y-95745000D03*
X131195000Y-95745000D03*
X131695000Y-95745000D03*
X132195000Y-95745000D03*
X132695000Y-95745000D03*
X133195000Y-95745000D03*
D33*
X130582500Y-92482500D03*
X130582500Y-94207500D03*
X132307500Y-92482500D03*
X132307500Y-94207500D03*
D39*
X81800000Y-135890000D03*
X83300000Y-135890000D03*
D20*
X76200000Y-134620000D03*
X76200000Y-133807200D03*
X79375000Y-134620000D03*
X79375000Y-133807200D03*
D40*
X81915000Y-133985000D03*
X81915000Y-132715000D03*
X81915000Y-131445000D03*
X81915000Y-130175000D03*
X88265000Y-130175000D03*
X88265000Y-131445000D03*
X88265000Y-132715000D03*
X88265000Y-133985000D03*
D16*
X151765000Y-93460000D03*
X151765000Y-91960000D03*
D39*
X158000000Y-98425000D03*
X159500000Y-98425000D03*
D16*
X161925000Y-92825000D03*
X161925000Y-91325000D03*
X163830000Y-92825000D03*
X163830000Y-91325000D03*
D39*
X159905000Y-89535000D03*
X161405000Y-89535000D03*
X134505000Y-89535000D03*
X136005000Y-89535000D03*
X132600000Y-98425000D03*
X134100000Y-98425000D03*
D16*
X126365000Y-93460000D03*
X126365000Y-91960000D03*
X138430000Y-92825000D03*
X138430000Y-91325000D03*
X136525000Y-92825000D03*
X136525000Y-91325000D03*
D21*
X31750000Y-111315000D03*
X31750000Y-108395000D03*
D22*
X50990000Y-112395000D03*
X48070000Y-112395000D03*
X50990000Y-107315000D03*
X48070000Y-107315000D03*
D21*
X155575000Y-85280000D03*
X155575000Y-82360000D03*
X159385000Y-85280000D03*
X159385000Y-82360000D03*
D20*
X167005000Y-84226400D03*
X167005000Y-83413600D03*
D21*
X163195000Y-85280000D03*
X163195000Y-82360000D03*
X167005000Y-85280000D03*
X167005000Y-82360000D03*
X130175000Y-85280000D03*
X130175000Y-82360000D03*
X133985000Y-85280000D03*
X133985000Y-82360000D03*
X137795000Y-85280000D03*
X137795000Y-82360000D03*
X141605000Y-85280000D03*
X141605000Y-82360000D03*
D22*
X67120000Y-50165000D03*
X70040000Y-50165000D03*
D20*
X163195000Y-84226400D03*
X163195000Y-83413600D03*
X159385000Y-84226400D03*
X159385000Y-83413600D03*
X155575000Y-84226400D03*
X155575000Y-83413600D03*
X141605000Y-84226400D03*
X141605000Y-83413600D03*
X137795000Y-84226400D03*
X137795000Y-83413600D03*
X133985000Y-84226400D03*
X133985000Y-83413600D03*
X130175000Y-84226400D03*
X130175000Y-83413600D03*
D41*
X98831400Y-57785000D03*
X98018600Y-57785000D03*
X61366400Y-52705000D03*
X60553600Y-52705000D03*
X63906400Y-48895000D03*
X63093600Y-48895000D03*
D14*
X154940000Y-78740000D03*
D15*
X157480000Y-78740000D03*
X160020000Y-78740000D03*
X162560000Y-78740000D03*
X165100000Y-78740000D03*
X167640000Y-78740000D03*
D14*
X129540000Y-78740000D03*
D15*
X132080000Y-78740000D03*
X134620000Y-78740000D03*
X137160000Y-78740000D03*
X139700000Y-78740000D03*
X142240000Y-78740000D03*
D14*
X255270000Y-121920000D03*
D15*
X257810000Y-121920000D03*
X260350000Y-121920000D03*
X262890000Y-121920000D03*
X265430000Y-121920000D03*
X267970000Y-121920000D03*
X270510000Y-121920000D03*
X273050000Y-121920000D03*
D14*
X232410000Y-121920000D03*
D15*
X234950000Y-121920000D03*
X237490000Y-121920000D03*
X240030000Y-121920000D03*
X242570000Y-121920000D03*
X245110000Y-121920000D03*
X247650000Y-121920000D03*
X250190000Y-121920000D03*
D14*
X209550000Y-121920000D03*
D15*
X212090000Y-121920000D03*
X214630000Y-121920000D03*
X217170000Y-121920000D03*
X219710000Y-121920000D03*
X222250000Y-121920000D03*
X224790000Y-121920000D03*
X227330000Y-121920000D03*
D14*
X186690000Y-121920000D03*
D15*
X189230000Y-121920000D03*
X191770000Y-121920000D03*
X194310000Y-121920000D03*
X196850000Y-121920000D03*
X199390000Y-121920000D03*
X201930000Y-121920000D03*
X204470000Y-121920000D03*
D14*
X255270000Y-99060000D03*
D15*
X257810000Y-99060000D03*
X260350000Y-99060000D03*
X262890000Y-99060000D03*
X265430000Y-99060000D03*
X267970000Y-99060000D03*
X270510000Y-99060000D03*
X273050000Y-99060000D03*
D14*
X232410000Y-99060000D03*
D15*
X234950000Y-99060000D03*
X237490000Y-99060000D03*
X240030000Y-99060000D03*
X242570000Y-99060000D03*
X245110000Y-99060000D03*
X247650000Y-99060000D03*
X250190000Y-99060000D03*
D14*
X209550000Y-99060000D03*
D15*
X212090000Y-99060000D03*
X214630000Y-99060000D03*
X217170000Y-99060000D03*
X219710000Y-99060000D03*
X222250000Y-99060000D03*
X224790000Y-99060000D03*
X227330000Y-99060000D03*
D14*
X186690000Y-99060000D03*
D15*
X189230000Y-99060000D03*
X191770000Y-99060000D03*
X194310000Y-99060000D03*
X196850000Y-99060000D03*
X199390000Y-99060000D03*
X201930000Y-99060000D03*
X204470000Y-99060000D03*
D14*
X232410000Y-127000000D03*
D15*
X234950000Y-127000000D03*
X237490000Y-127000000D03*
X240030000Y-127000000D03*
X242570000Y-127000000D03*
X245110000Y-127000000D03*
X247650000Y-127000000D03*
X250190000Y-127000000D03*
D14*
X209550000Y-127000000D03*
D15*
X212090000Y-127000000D03*
X214630000Y-127000000D03*
X217170000Y-127000000D03*
X219710000Y-127000000D03*
X222250000Y-127000000D03*
X224790000Y-127000000D03*
X227330000Y-127000000D03*
D14*
X186690000Y-127000000D03*
D15*
X189230000Y-127000000D03*
X191770000Y-127000000D03*
X194310000Y-127000000D03*
X196850000Y-127000000D03*
X199390000Y-127000000D03*
X201930000Y-127000000D03*
X204470000Y-127000000D03*
D14*
X255270000Y-104140000D03*
D15*
X257810000Y-104140000D03*
X260350000Y-104140000D03*
X262890000Y-104140000D03*
X265430000Y-104140000D03*
X267970000Y-104140000D03*
X270510000Y-104140000D03*
X273050000Y-104140000D03*
D14*
X186690000Y-104140000D03*
D15*
X189230000Y-104140000D03*
X191770000Y-104140000D03*
X194310000Y-104140000D03*
X196850000Y-104140000D03*
X199390000Y-104140000D03*
X201930000Y-104140000D03*
X204470000Y-104140000D03*
D14*
X209550000Y-104140000D03*
D15*
X212090000Y-104140000D03*
X214630000Y-104140000D03*
X217170000Y-104140000D03*
X219710000Y-104140000D03*
X222250000Y-104140000D03*
X224790000Y-104140000D03*
X227330000Y-104140000D03*
D42*
X50800000Y-116840000D03*
X30480000Y-119380000D03*
X30480000Y-105410000D03*
D19*
X130810000Y-112915000D03*
X130810000Y-114415000D03*
X132715000Y-114415000D03*
X132715000Y-112915000D03*
X44450000Y-113145000D03*
X44450000Y-111645000D03*
X44450000Y-108065000D03*
X44450000Y-106565000D03*
D29*
X167755000Y-75565000D03*
X166255000Y-75565000D03*
X162445000Y-75565000D03*
X163945000Y-75565000D03*
X160135000Y-75565000D03*
X158635000Y-75565000D03*
X154825000Y-75565000D03*
X156325000Y-75565000D03*
X142355000Y-75565000D03*
X140855000Y-75565000D03*
X137045000Y-75565000D03*
X138545000Y-75565000D03*
X134735000Y-75565000D03*
X133235000Y-75565000D03*
X129425000Y-75565000D03*
X130925000Y-75565000D03*
D19*
X63500000Y-54725000D03*
X63500000Y-53225000D03*
X78740000Y-57035000D03*
X78740000Y-58535000D03*
D23*
X41681400Y-106756200D03*
X39370000Y-106756200D03*
X37058600Y-106756200D03*
D24*
X39370000Y-112953800D03*
D38*
X66540000Y-53340000D03*
X66540380Y-55880000D03*
X66540380Y-58420000D03*
X66540000Y-60960000D03*
X75700000Y-60960000D03*
X75700000Y-58420000D03*
X75700000Y-55880000D03*
X75700000Y-53340000D03*
D43*
X48260000Y-116840000D03*
X45720000Y-116840000D03*
X35560000Y-119380000D03*
X33020000Y-119380000D03*
X38100000Y-119380000D03*
X127000000Y-106045000D03*
X124460000Y-106045000D03*
X144272000Y-102997000D03*
X144272000Y-100457000D03*
X113030000Y-92710000D03*
X113030000Y-97790000D03*
X113030000Y-95250000D03*
X152400000Y-106045000D03*
X149860000Y-106045000D03*
X81280000Y-58420000D03*
D14*
X129540000Y-127000000D03*
D15*
X132080000Y-127000000D03*
X134620000Y-127000000D03*
X137160000Y-127000000D03*
X139700000Y-127000000D03*
X142240000Y-127000000D03*
X144780000Y-127000000D03*
X147320000Y-127000000D03*
D14*
X152400000Y-127000000D03*
D15*
X154940000Y-127000000D03*
X157480000Y-127000000D03*
X160020000Y-127000000D03*
X162560000Y-127000000D03*
X165100000Y-127000000D03*
X167640000Y-127000000D03*
X170180000Y-127000000D03*
D14*
X129540000Y-147320000D03*
D15*
X132080000Y-147320000D03*
X134620000Y-147320000D03*
X137160000Y-147320000D03*
X139700000Y-147320000D03*
X142240000Y-147320000D03*
X144780000Y-147320000D03*
X147320000Y-147320000D03*
D14*
X152400000Y-147320000D03*
D15*
X154940000Y-147320000D03*
X157480000Y-147320000D03*
X160020000Y-147320000D03*
X162560000Y-147320000D03*
X165100000Y-147320000D03*
X167640000Y-147320000D03*
X170180000Y-147320000D03*
D19*
X129540000Y-121400000D03*
X129540000Y-119900000D03*
X129540000Y-141720000D03*
X129540000Y-140220000D03*
X132080000Y-121400000D03*
X132080000Y-119900000D03*
X132080000Y-141720000D03*
X132080000Y-140220000D03*
X134620000Y-121400000D03*
X134620000Y-119900000D03*
X134620000Y-141720000D03*
X134620000Y-140220000D03*
X137160000Y-121400000D03*
X137160000Y-119900000D03*
X137160000Y-141720000D03*
X137160000Y-140220000D03*
X139700000Y-121400000D03*
X139700000Y-119900000D03*
X139700000Y-141720000D03*
X139700000Y-140220000D03*
X142240000Y-121400000D03*
X142240000Y-119900000D03*
X142240000Y-141720000D03*
X142240000Y-140220000D03*
X144780000Y-121400000D03*
X144780000Y-119900000D03*
X144780000Y-141720000D03*
X144780000Y-140220000D03*
X147320000Y-121400000D03*
X147320000Y-119900000D03*
X147320000Y-141720000D03*
X147320000Y-140220000D03*
X152400000Y-121400000D03*
X152400000Y-119900000D03*
X152400000Y-141720000D03*
X152400000Y-140220000D03*
X154940000Y-121400000D03*
X154940000Y-119900000D03*
X154940000Y-141720000D03*
X154940000Y-140220000D03*
X157480000Y-121400000D03*
X157480000Y-119900000D03*
X157480000Y-141720000D03*
X157480000Y-140220000D03*
X160020000Y-121400000D03*
X160020000Y-119900000D03*
X160020000Y-141720000D03*
X160020000Y-140220000D03*
X162560000Y-121400000D03*
X162560000Y-119900000D03*
X162560000Y-141720000D03*
X162560000Y-140220000D03*
X165100000Y-121400000D03*
X165100000Y-119900000D03*
X165100000Y-141720000D03*
X165100000Y-140220000D03*
X167640000Y-121400000D03*
X167640000Y-119900000D03*
X167640000Y-141720000D03*
X167640000Y-140220000D03*
X170180000Y-121400000D03*
X170180000Y-119900000D03*
X170180000Y-141720000D03*
X170180000Y-140220000D03*
X175260000Y-141720000D03*
X175260000Y-140220000D03*
X220980000Y-141720000D03*
X220980000Y-140220000D03*
X177800000Y-141720000D03*
X177800000Y-140220000D03*
X223520000Y-141720000D03*
X223520000Y-140220000D03*
X180340000Y-141720000D03*
X180340000Y-140220000D03*
X226060000Y-141720000D03*
X226060000Y-140220000D03*
X182880000Y-141720000D03*
X182880000Y-140220000D03*
X228600000Y-141720000D03*
X228600000Y-140220000D03*
X185420000Y-141720000D03*
X185420000Y-140220000D03*
X231140000Y-141720000D03*
X231140000Y-140220000D03*
X187960000Y-141720000D03*
X187960000Y-140220000D03*
X233680000Y-141720000D03*
X233680000Y-140220000D03*
X190500000Y-141720000D03*
X190500000Y-140220000D03*
X236220000Y-141720000D03*
X236220000Y-140220000D03*
X193040000Y-141720000D03*
X193040000Y-140220000D03*
X238760000Y-141720000D03*
X238760000Y-140220000D03*
X198120000Y-141720000D03*
X198120000Y-140220000D03*
X243840000Y-141720000D03*
X243840000Y-140220000D03*
X200660000Y-141720000D03*
X200660000Y-140220000D03*
X246380000Y-141720000D03*
X246380000Y-140220000D03*
X203200000Y-141720000D03*
X203200000Y-140220000D03*
X248920000Y-141720000D03*
X248920000Y-140220000D03*
X205740000Y-141720000D03*
X205740000Y-140220000D03*
X251460000Y-141720000D03*
X251460000Y-140220000D03*
X208280000Y-141720000D03*
X208280000Y-140220000D03*
X254000000Y-141720000D03*
X254000000Y-140220000D03*
X210820000Y-141720000D03*
X210820000Y-140220000D03*
X256540000Y-141720000D03*
X256540000Y-140220000D03*
X213360000Y-141720000D03*
X213360000Y-140220000D03*
X259080000Y-141720000D03*
X259080000Y-140220000D03*
X215900000Y-141720000D03*
X215900000Y-140220000D03*
X261620000Y-141720000D03*
X261620000Y-140220000D03*
D14*
X175260000Y-147320000D03*
D15*
X177800000Y-147320000D03*
X180340000Y-147320000D03*
X182880000Y-147320000D03*
X185420000Y-147320000D03*
X187960000Y-147320000D03*
X190500000Y-147320000D03*
X193040000Y-147320000D03*
D14*
X198120000Y-147320000D03*
D15*
X200660000Y-147320000D03*
X203200000Y-147320000D03*
X205740000Y-147320000D03*
X208280000Y-147320000D03*
X210820000Y-147320000D03*
X213360000Y-147320000D03*
X215900000Y-147320000D03*
D14*
X220980000Y-147320000D03*
D15*
X223520000Y-147320000D03*
X226060000Y-147320000D03*
X228600000Y-147320000D03*
X231140000Y-147320000D03*
X233680000Y-147320000D03*
X236220000Y-147320000D03*
X238760000Y-147320000D03*
D14*
X243840000Y-147320000D03*
D15*
X246380000Y-147320000D03*
X248920000Y-147320000D03*
X251460000Y-147320000D03*
X254000000Y-147320000D03*
X256540000Y-147320000D03*
X259080000Y-147320000D03*
X261620000Y-147320000D03*
D44*
X40640000Y-33098740D03*
X35941000Y-36098480D03*
X40640000Y-39098220D03*
D45*
X182880000Y-121920000D03*
X182880000Y-99060000D03*
X172720000Y-99060000D03*
X182880000Y-127000000D03*
X182880000Y-104140000D03*
X124460000Y-147320000D03*
X124460000Y-127000000D03*
D14*
X119380000Y-110490000D03*
D15*
X116840000Y-110490000D03*
X114300000Y-110490000D03*
X111760000Y-110490000D03*
X109220000Y-110490000D03*
D14*
X161340800Y-104241600D03*
D15*
X163880800Y-104241600D03*
X166420800Y-104241600D03*
X168960800Y-104241600D03*
D41*
X141833600Y-102997000D03*
X142646400Y-102997000D03*
X141833600Y-100457000D03*
X142646400Y-100457000D03*
X110718600Y-92710000D03*
X111531400Y-92710000D03*
X110718600Y-97790000D03*
X111531400Y-97790000D03*
X110718600Y-95250000D03*
X111531400Y-95250000D03*
D42*
X27940000Y-60960000D03*
D43*
X140208000Y-102997000D03*
X140208000Y-100457000D03*
X109220000Y-92710000D03*
X109220000Y-97790000D03*
X109220000Y-95250000D03*
X127000000Y-99695000D03*
X124460000Y-99695000D03*
X152400000Y-99695000D03*
X149860000Y-99695000D03*
D13*
X76200000Y-68580000D03*
D41*
X161950400Y-98806000D03*
X161137600Y-98806000D03*
X136550400Y-98806000D03*
X135737600Y-98806000D03*
D43*
X83820000Y-127000000D03*
X88900000Y-127000000D03*
X91440000Y-127000000D03*
X55880000Y-78740000D03*
X81280000Y-116840000D03*
X86360000Y-127000000D03*
X78740000Y-132080000D03*
X93980000Y-101600000D03*
X55880000Y-71120000D03*
X73660000Y-96520000D03*
D46*
X175260000Y-95180000D03*
X175260000Y-90240000D03*
D16*
X171450000Y-89928000D03*
X171450000Y-91428000D03*
D45*
X172720000Y-83820000D03*
D29*
X172442000Y-87630000D03*
X170942000Y-87630000D03*
D47*
X35560000Y-49339500D03*
X35560000Y-57340500D03*
X46990000Y-49339500D03*
X46990000Y-57340500D03*
D48*
X27940000Y-49300000D03*
X27940000Y-52300000D03*
X27940000Y-45950000D03*
X27940000Y-42950000D03*
D46*
X123190000Y-139630000D03*
X123190000Y-134690000D03*
D16*
X126238000Y-135394000D03*
X126238000Y-136894000D03*
D43*
X55880000Y-93980000D03*
X55880000Y-86360000D03*
D45*
X129540000Y-134620000D03*
X119380000Y-142240000D03*
D49*
X32460000Y-44450000D03*
X38660000Y-44450000D03*
D10*
G36*
X128054147Y-132468909D02*
X127134909Y-133388147D01*
X126498513Y-132751751D01*
X127417751Y-131832513D01*
X128054147Y-132468909D01*
X128054147Y-132468909D01*
G37*
G36*
X126993487Y-131408249D02*
X126074249Y-132327487D01*
X125437853Y-131691091D01*
X126357091Y-130771853D01*
X126993487Y-131408249D01*
X126993487Y-131408249D01*
G37*
D45*
X175260000Y-104140000D03*
D16*
X128905000Y-100850000D03*
X128905000Y-102350000D03*
D39*
X97155000Y-103505000D03*
X98655000Y-103505000D03*
D16*
X115570000Y-93460000D03*
X115570000Y-91960000D03*
X117475000Y-93460000D03*
X117475000Y-91960000D03*
D39*
X114820000Y-90170000D03*
X116320000Y-90170000D03*
D16*
X93980000Y-97905000D03*
X93980000Y-96405000D03*
X154305000Y-100850000D03*
X154305000Y-102350000D03*
D39*
X90285000Y-117475000D03*
X88785000Y-117475000D03*
X81165000Y-119253000D03*
X82665000Y-119253000D03*
D16*
X93345000Y-129425000D03*
X93345000Y-130925000D03*
D41*
X118465600Y-100076000D03*
X119278400Y-100076000D03*
X118465600Y-97536000D03*
X119278400Y-97536000D03*
D43*
X116967000Y-97536000D03*
X116967000Y-100076000D03*
X120777000Y-97536000D03*
X120777000Y-100076000D03*
D29*
X88785000Y-95885000D03*
X90285000Y-95885000D03*
D19*
X78740000Y-117995000D03*
X78740000Y-119495000D03*
X90805000Y-130925000D03*
X90805000Y-129425000D03*
X91440000Y-145530000D03*
X91440000Y-144030000D03*
X107950000Y-145530000D03*
X107950000Y-144030000D03*
D20*
X56134000Y-104038400D03*
X56134000Y-103225600D03*
D50*
X265430000Y-132080000D03*
D51*
X265430000Y-134620000D03*
X265430000Y-137160000D03*
X265430000Y-139700000D03*
X265430000Y-142240000D03*
D43*
X66040000Y-96520000D03*
X60960000Y-96520000D03*
X63500000Y-114300000D03*
X66040000Y-114300000D03*
X68580000Y-114300000D03*
X71120000Y-114300000D03*
X73660000Y-114300000D03*
X76200000Y-114300000D03*
X78740000Y-114300000D03*
X81280000Y-114300000D03*
X83820000Y-114300000D03*
X86360000Y-114300000D03*
X88900000Y-114300000D03*
X91440000Y-114300000D03*
X60960000Y-114300000D03*
X91440000Y-99060000D03*
X88900000Y-99060000D03*
X86360000Y-99060000D03*
X83820000Y-99060000D03*
X81280000Y-99060000D03*
X78740000Y-99060000D03*
X76200000Y-99060000D03*
X73660000Y-99060000D03*
X71120000Y-99060000D03*
X68580000Y-99060000D03*
X66040000Y-99060000D03*
X78740000Y-106680000D03*
X81280000Y-106680000D03*
X83820000Y-106680000D03*
X86360000Y-106680000D03*
X88900000Y-106680000D03*
X88900000Y-104140000D03*
X86360000Y-104140000D03*
X83820000Y-104140000D03*
X81280000Y-104140000D03*
X78740000Y-104140000D03*
X58420000Y-99060000D03*
X60960000Y-99060000D03*
X63500000Y-99060000D03*
X91440000Y-101600000D03*
X91440000Y-104140000D03*
X91440000Y-106680000D03*
X91440000Y-109220000D03*
X91440000Y-111760000D03*
X58420000Y-114300000D03*
X76200000Y-104140000D03*
X68580000Y-101600000D03*
X71120000Y-101600000D03*
X73660000Y-106680000D03*
X73660000Y-104140000D03*
X66040000Y-101600000D03*
X60960000Y-101600000D03*
X76200000Y-106680000D03*
M02*
